<svg width="240" height="81" viewBox="0 0 240 81" fill="none" xmlns="http://www.w3.org/2000/svg">
<path d="M8.05298 66.1189C3.90402 66.1189 0.529053 62.7439 0.529053 58.595V8.05639C0.529053 3.90591 3.90402 0.528564 8.05298 0.528564H37.6872C41.8362 0.528564 45.2112 3.90591 45.2112 8.05639V58.595C45.2112 62.7439 41.8362 66.1189 37.6872 66.1189H8.05298ZM2.64455 58.595C2.64455 61.5771 5.07129 64.0032 8.05298 64.0032H37.6872C40.6696 64.0032 43.0957 61.5771 43.0957 58.595V41.2898C36.9959 44.9012 30.0339 46.805 22.8963 46.805C15.7408 46.805 8.75923 44.8899 2.64455 41.26V58.595Z" fill="#0090D1"/>
<path d="M37.6872 1.05818C41.5513 1.05818 44.6828 4.19203 44.6828 8.05616V58.5952C44.6828 62.4595 41.5513 65.5899 37.6872 65.5899H8.05291C4.18879 65.5899 1.05818 62.4593 1.05818 58.5952V8.05616C1.05818 4.19203 4.18879 1.05818 8.05291 1.05818H37.6872ZM8.05291 64.5326H37.6872C40.9591 64.5326 43.6246 61.8701 43.6246 58.5949V40.3487C37.6092 44.1077 30.5052 46.2753 22.8969 46.2753C15.263 46.2753 8.141 44.0936 2.1155 40.3169V58.5949C2.1155 61.8703 4.77707 64.5326 8.05291 64.5326ZM37.6872 0H8.05291C3.61284 0 0 3.6137 0 8.05616V58.5952C0 63.0352 3.61284 66.6483 8.05291 66.6483H37.6872C42.1281 66.6483 45.7401 63.0352 45.7401 58.5952V8.05616C45.7401 3.61348 42.1281 0 37.6872 0ZM8.05291 63.4746C5.36233 63.4746 3.17346 61.2857 3.17346 58.5952V42.1757C9.17581 45.5552 15.9552 47.3337 22.8969 47.3337C29.8193 47.3337 36.5798 45.5654 42.5673 42.2054V58.5954C42.5673 61.286 40.3777 63.4748 37.6872 63.4748L8.05291 63.4746Z" fill="white"/>
<path d="M43.6245 40.3487V58.5951C43.6245 61.8701 40.9588 64.5317 37.6871 64.5317H8.05286C4.77703 64.5317 2.11523 61.8701 2.11523 58.5951V40.3167C8.14096 44.0935 15.263 46.2751 22.8968 46.2751C30.5052 46.2753 37.6092 44.1076 43.6245 40.3487Z" fill="white"/>
<path d="M10.2481 51.9342H9.30005V56.9305H10.2481V51.9342Z" fill="#0090D1"/>
<path d="M11.2175 56.5993L11.4305 55.8279C11.6116 55.9214 11.8175 56.0034 12.0478 56.0744C12.2778 56.1454 12.4878 56.1813 12.6791 56.1813C12.9733 56.1813 13.1964 56.1344 13.3477 56.0415C13.4999 55.948 13.5756 55.8138 13.5756 55.6374C13.5756 55.5151 13.5163 55.4035 13.3962 55.3026C13.2761 55.2028 13.091 55.0842 12.8412 54.9468L12.6205 54.8141C12.2928 54.6184 12.0322 54.449 11.8387 54.3078C11.6452 54.1656 11.4781 53.9972 11.3385 53.8037C11.1987 53.61 11.1294 53.394 11.1294 53.1536C11.1294 52.8992 11.198 52.6698 11.3346 52.467C11.4718 52.2633 11.6692 52.104 11.9268 51.9893C12.1835 51.874 12.491 51.8162 12.8484 51.8162C13.2698 51.8162 13.7395 51.941 14.2591 52.1913L13.9431 52.9553C13.7427 52.8568 13.56 52.7813 13.3962 52.7274C13.2315 52.6735 13.0544 52.6462 12.8631 52.6462C12.6432 52.6462 12.4629 52.6899 12.3233 52.775C12.1835 52.8607 12.114 52.9867 12.114 53.1533C12.114 53.2955 12.1687 53.4142 12.2787 53.51C12.3887 53.6051 12.5689 53.7263 12.8196 53.8737L13.0544 54.0055L13.2674 54.1301C13.5561 54.2972 13.7862 54.4431 13.9581 54.568C14.1297 54.692 14.2723 54.8442 14.3879 55.023C14.5026 55.2024 14.5604 55.4115 14.5604 55.6511C14.5604 55.921 14.4879 56.1582 14.3435 56.3642C14.1992 56.5703 13.986 56.7309 13.7044 56.8489C13.4226 56.9666 13.0865 57.025 12.6938 57.025C12.4878 57.025 12.2326 56.9796 11.9268 56.8891C11.6201 56.7991 11.3837 56.7025 11.2175 56.5993Z" fill="#0090D1"/>
<path d="M17.4477 51.8162C17.9526 51.8162 18.3912 51.93 18.7634 52.1579C19.1355 52.3861 19.4179 52.6956 19.6123 53.0873C19.8052 53.4793 19.9019 53.9176 19.9019 54.4029C19.9019 54.9119 19.7995 55.3643 19.5937 55.7586C19.3876 56.1523 19.1004 56.4606 18.7305 56.6837C18.3606 56.9069 17.9332 57.0233 17.4477 57.0326C16.9436 57.0326 16.5059 56.9188 16.1361 56.6909C15.7662 56.4629 15.4852 56.1545 15.2917 55.7653C15.0982 55.3762 15.0015 54.9392 15.0015 54.4537C15.0015 53.9496 15.1028 53.4986 15.3064 53.102C15.5095 52.7049 15.7973 52.3943 16.1696 52.169C16.5417 51.9436 16.9678 51.8255 17.4477 51.8162ZM15.9932 54.4468C15.9932 54.794 16.0516 55.1046 16.1696 55.3762C16.2867 55.6476 16.4551 55.8586 16.6728 56.0082C16.8906 56.1573 17.1466 56.2322 17.4408 56.2322C17.7146 56.2322 17.9635 56.1651 18.1866 56.0301C18.4091 55.8959 18.5855 55.6898 18.7158 55.4125C18.8452 55.1366 18.91 54.7994 18.91 54.4029C18.91 54.0596 18.8515 53.7537 18.7338 53.4836C18.6158 53.2144 18.4472 53.0046 18.2264 52.8525C18.0063 52.7003 17.7513 52.6246 17.4626 52.6246C17.1979 52.6246 16.9546 52.6986 16.7321 52.8486C16.509 52.9975 16.3302 53.2113 16.1954 53.4875C16.0601 53.7646 15.9932 54.0847 15.9932 54.4468Z" fill="#0090D1"/>
<path d="M24.5716 52.9003C24.8579 53.0492 25.0817 53.2693 25.2434 53.5613C25.4049 53.8533 25.486 54.2065 25.486 54.6232C25.486 55.1617 25.3369 55.6331 25.0373 56.0372C24.7384 56.4415 24.3685 56.7614 23.9285 56.9962C23.4876 57.2311 23.0515 57.3763 22.6208 57.43L22.4881 56.6434C23.3995 56.3939 24.0166 56.0309 24.3397 55.5567C24.104 55.669 23.8599 55.7251 23.6047 55.7251C23.301 55.7251 23.0272 55.6567 22.7822 55.5199C22.5372 55.3825 22.3444 55.1985 22.2056 54.9682C22.0658 54.7381 21.9963 54.4838 21.9963 54.2044C21.9963 53.9055 22.0643 53.6408 22.2017 53.4109C22.339 53.1806 22.5271 53.0003 22.7673 52.8709C23.0069 52.7412 23.2792 52.6765 23.5829 52.6765C23.9551 52.6763 24.2843 52.7505 24.5716 52.9003ZM23.0686 54.7442C23.2153 54.8979 23.4017 54.976 23.6272 54.976C24.0043 54.976 24.3272 54.8753 24.5973 54.6747C24.5917 54.2628 24.5012 53.9583 24.3248 53.76C24.1486 53.5611 23.9114 53.462 23.6125 53.462C23.3971 53.462 23.2153 53.5306 23.0686 53.668C22.9218 53.8044 22.8485 53.9715 22.8485 54.1676C22.8485 54.3977 22.9218 54.5905 23.0686 54.7442Z" fill="#0090D1"/>
<path d="M25.8535 54.8363C25.8535 54.425 25.9418 54.0551 26.118 53.7274C26.2944 53.3987 26.5379 53.1413 26.8485 52.9556C27.1597 52.7692 27.511 52.6764 27.9026 52.6764C28.2904 52.6764 28.6393 52.7684 28.9499 52.9517C29.2612 53.1352 29.5038 53.3909 29.6778 53.7196C29.8512 54.0482 29.9378 54.4157 29.9378 54.8215C29.9378 55.2427 29.8497 55.6213 29.6739 55.9568C29.4977 56.2923 29.2534 56.5546 28.9428 56.7427C28.6315 56.9314 28.2826 57.0258 27.8956 57.0258C27.5086 57.0258 27.1597 56.9314 26.8485 56.7427C26.5379 56.5546 26.2944 56.294 26.118 55.96C25.9418 55.6274 25.8535 55.2527 25.8535 54.8363ZM26.7275 54.8142C26.7275 55.0789 26.7782 55.3174 26.8781 55.5308C26.9788 55.7436 27.1177 55.91 27.2972 56.0301C27.4757 56.1503 27.6779 56.2104 27.9026 56.2104C28.129 56.2104 28.3302 56.1511 28.5097 56.034C28.6885 55.9163 28.8274 55.7546 28.9281 55.549C29.0287 55.3438 29.0787 55.1111 29.0787 54.8512C29.0787 54.5912 29.0272 54.3581 28.9242 54.1495C28.8211 53.9413 28.6807 53.7781 28.5019 53.6612C28.3233 53.5432 28.1212 53.485 27.8956 53.485C27.6755 53.485 27.4757 53.5428 27.2972 53.6575C27.1177 53.772 26.9788 53.9305 26.8781 54.1311C26.7782 54.3315 26.7275 54.559 26.7275 54.8142Z" fill="#0090D1"/>
<path d="M30.3054 54.8363C30.3054 54.425 30.3935 54.0551 30.5699 53.7274C30.747 53.3987 30.9896 53.1413 31.301 52.9556C31.6123 52.7692 31.9636 52.6764 32.3551 52.6764C32.743 52.6764 33.091 52.7684 33.4025 52.9517C33.7137 53.1352 33.9557 53.3909 34.1297 53.7196C34.3037 54.0482 34.3903 54.4157 34.3903 54.8215C34.3903 55.2427 34.3022 55.6213 34.1265 55.9568C33.9503 56.2923 33.7059 56.5546 33.3947 56.7427C33.0841 56.9314 32.7352 57.0258 32.3482 57.0258C31.9612 57.0258 31.6123 56.9314 31.301 56.7427C30.9896 56.5546 30.747 56.294 30.5699 55.96C30.3935 55.6274 30.3054 55.2527 30.3054 54.8363ZM31.1801 54.8142C31.1801 55.0789 31.2301 55.3174 31.3307 55.5308C31.4305 55.7436 31.5703 55.91 31.7489 56.0301C31.9283 56.1503 32.1298 56.2104 32.3551 56.2104C32.5806 56.2104 32.7828 56.1511 32.9616 56.034C33.141 55.9163 33.28 55.7546 33.3806 55.549C33.4804 55.3438 33.5313 55.1111 33.5313 54.8512C33.5313 54.5912 33.4797 54.3581 33.3767 54.1495C33.2737 53.9413 33.1332 53.7781 32.9544 53.6612C32.7759 53.5432 32.5737 53.485 32.3482 53.485C32.1281 53.485 31.9283 53.5428 31.7489 53.6575C31.5703 53.772 31.4305 53.9305 31.3307 54.1311C31.2301 54.3315 31.1801 54.559 31.1801 54.8142Z" fill="#0090D1"/>
<path d="M35.8456 56.9301V53.83L35.0075 54.153L34.6487 53.4404L36.1616 52.7719H36.8008V56.9301H35.8456Z" fill="#0090D1"/>
<path d="M22.8734 20.6653C21.0161 20.6647 19.5062 19.1524 19.5071 17.2951C19.5086 15.4381 21.0209 13.9282 22.8782 13.9297C24.7361 13.9312 26.2451 15.4426 26.2445 17.2999C26.2427 19.1578 24.7305 20.6671 22.8734 20.6653ZM22.8773 15.1766C21.7076 15.1757 20.7555 16.127 20.7549 17.296C20.754 18.4656 21.7053 19.4178 22.8743 19.4184C24.0439 19.4193 24.9958 18.4689 24.9967 17.2999C24.9973 16.1294 24.0463 15.1775 22.8773 15.1766Z" fill="white"/>
<path d="M16.6993 22.6032C15.4733 21.1736 14.7305 19.318 14.732 17.2924C14.7335 15.6771 15.208 14.1726 16.0212 12.9062L15.0231 12.1532C14.0533 13.6311 13.486 15.3946 13.4851 17.2909C13.4827 19.6613 14.3645 21.8292 15.8151 23.4865L16.6993 22.6032Z" fill="white"/>
<path d="M15.8149 11.1088L16.6982 11.993C16.969 11.677 17.264 11.382 17.5792 11.1103L16.6959 10.2271C16.3837 10.5013 16.0896 10.7961 15.8149 11.1088Z" fill="white"/>
<path d="M22.9026 7.88709C20.997 7.88622 19.2227 8.45589 17.7385 9.43377L18.4898 10.4318C19.7633 9.61082 21.2771 9.13335 22.9017 9.13487C25.0289 9.13552 27.0117 9.94025 28.5162 11.3753L29.6056 10.701C27.8468 8.9022 25.4659 7.88947 22.9026 7.88709Z" fill="white"/>
<path d="M26.6506 20.7907C25.7119 21.7989 24.3751 22.4302 22.8919 22.4294C20.0623 22.427 17.7627 20.1236 17.7644 17.2941C17.7666 14.4639 20.0693 12.1642 22.8988 12.1666C23.9468 12.1675 24.9502 12.4874 25.7907 13.0616L26.9283 12.3577C25.8047 11.4394 24.3892 10.9197 22.9003 10.9188C19.3834 10.9164 16.5196 13.7756 16.5166 17.2932C16.5142 20.8102 19.3741 23.6739 22.891 23.6763C24.7903 23.6778 26.4969 22.8445 27.6681 21.5242L26.6506 20.7907Z" fill="white"/>
<path d="M27.435 24.0784C26.1351 24.9524 24.5704 25.4619 22.8895 25.4612C20.8632 25.4595 19.0092 24.7137 17.5811 23.4854L16.6963 24.3686C18.3512 25.8225 20.5182 26.7058 22.8889 26.7082C24.8615 26.7097 26.6937 26.0995 28.209 25.0593L27.435 24.0784Z" fill="white"/>
<path d="M30.4452 11.6459L26.7988 13.9025C26.7988 13.9025 28.0269 15.3297 28.0269 17.3017C28.0269 18.2006 27.7929 19.0464 27.3841 19.7808L28.4001 20.515C28.9539 19.57 29.274 18.4737 29.274 17.3023C29.2756 16.2498 29.0171 15.2213 28.5271 14.3005L30.048 13.3588C30.7121 14.5629 31.0593 15.915 31.0586 17.3041C31.0569 19.6763 30.037 21.8143 28.4148 23.3062L29.189 24.2871C31.0999 22.5649 32.3062 20.0734 32.3062 17.3047C32.3064 13.954 30.4452 11.6459 30.4452 11.6459Z" fill="white"/>
<path d="M16.1858 31.3805C14.7307 31.3798 13.5452 32.5597 13.5437 34.0118C13.5428 35.4632 14.7268 36.6446 16.1819 36.6461C17.6388 36.6469 18.8249 35.4671 18.8257 34.0157C18.8266 32.5642 17.6427 31.382 16.1858 31.3805ZM16.1828 35.5654C15.3237 35.5645 14.6261 34.8678 14.6268 34.0126C14.6268 33.1566 15.3259 32.4612 16.1851 32.462C17.0442 32.462 17.7418 33.1588 17.7418 34.0148C17.7411 34.8702 17.0418 35.5662 16.1828 35.5654Z" fill="white"/>
<path d="M7.34782 36.4817L6.2444 36.4808L6.24743 31.9823L7.35085 31.9838L7.34782 36.4817ZM6.79763 31.4087C6.42232 31.4087 6.12817 31.1154 6.12817 30.7408C6.12882 30.3661 6.42297 30.0735 6.79849 30.0735C7.17445 30.0735 7.46795 30.3678 7.46795 30.7423C7.46708 31.1161 7.17294 31.4087 6.79763 31.4087Z" fill="white"/>
<path d="M22.3533 31.3684C20.8964 31.3675 19.7103 32.5476 19.7095 33.9997V36.5288L20.8737 36.5294L20.8754 33.9185C20.8761 33.1077 21.5378 32.4484 22.3524 32.4491C23.1554 32.45 23.811 33.0937 23.8266 33.8904L23.8242 36.5318L24.9909 36.5327L24.9924 34.0036C24.993 32.5506 23.8093 31.3693 22.3533 31.3684Z" fill="white"/>
<path d="M28.5398 35.6532C28.5398 35.6532 28.3673 35.6664 28.2995 35.6664C27.8251 35.6664 27.5995 35.5472 27.5995 34.8753L27.6017 32.301L28.5865 32.3018L28.5874 31.4434L27.605 31.4426L27.6058 30.4329L26.4407 30.432V31.4419L25.7704 31.4411L25.7695 32.2947L26.4398 32.2962L26.4375 34.716C26.4375 35.0673 26.4632 35.5792 26.6857 35.9826C26.9299 36.4281 27.3615 36.6536 27.9694 36.6545C28.2627 36.6545 28.5389 36.5991 28.5389 36.5991L28.5398 35.6532Z" fill="white"/>
<path d="M11.0241 36.6552C9.56095 36.6552 8.37031 35.4661 8.37183 34.0077C8.37248 32.5491 9.5642 31.3647 11.028 31.3647C12.2665 31.3647 12.9563 32.1933 12.9563 32.1933L12.25 33.0658C12.25 33.0658 11.8145 32.4703 11.0271 32.4703C10.175 32.4703 9.48217 33.1601 9.4813 34.0084C9.48066 34.8575 10.1728 35.5488 11.025 35.5488C11.8334 35.5488 12.2585 34.9425 12.2585 34.9425L12.9686 35.8133C12.9686 35.8133 12.2632 36.6552 11.0241 36.6552Z" fill="white"/>
<path d="M37.7187 36.6552C36.2555 36.6552 35.0649 35.4661 35.0664 34.0077C35.0671 32.5491 36.2588 31.3647 37.7226 31.3647C38.9611 31.3647 39.6508 32.1933 39.6508 32.1933L38.9446 33.0658C38.9446 33.0658 38.5091 32.4703 37.7217 32.4703C36.8696 32.4703 36.1768 33.1601 36.1759 34.0084C36.1752 34.8575 36.8674 35.5488 37.7195 35.5488C38.5279 35.5488 38.9539 34.9425 38.9539 34.9425L39.6632 35.8133C39.6632 35.8133 38.9576 36.6552 37.7187 36.6552Z" fill="white"/>
<path d="M31.7823 31.342C30.2341 31.342 29.3032 32.6242 29.3032 34.017C29.3032 35.5698 30.3856 36.657 31.9384 36.657C33.4983 36.657 34.0991 35.4886 34.0991 35.4886L33.3033 34.8925C33.3033 34.8925 32.8974 35.6111 31.9587 35.6111C31.1315 35.6111 30.4986 35.0938 30.448 34.3183L34.2115 34.3214C34.2115 34.3214 34.2286 34.0779 34.2286 33.9921C34.2286 32.8552 33.6621 31.342 31.7823 31.342ZM30.4917 33.4614C30.5837 32.7926 31.1309 32.3496 31.791 32.3496C32.4832 32.3502 32.9888 32.7848 33.0526 33.4638L30.4917 33.4614Z" fill="white"/>
<path d="M11.0647 79.4722L11.5082 79.4248C11.532 79.6635 11.5857 79.849 11.6694 79.9821C11.7532 80.1152 11.8729 80.2221 12.0287 80.3029C12.1846 80.3838 12.3601 80.4243 12.5553 80.4243C12.8352 80.4243 13.0525 80.3561 13.2072 80.2193C13.362 80.0825 13.4395 79.9051 13.4395 79.6864C13.4395 79.5585 13.4114 79.4471 13.3551 79.3516C13.299 79.2564 13.2142 79.1778 13.1008 79.117C12.9873 79.0562 12.7425 78.9696 12.3659 78.8583C12.0307 78.759 11.7922 78.659 11.6502 78.5581C11.5082 78.4577 11.3978 78.33 11.319 78.1753C11.2402 78.0203 11.2006 77.8454 11.2006 77.6502C11.2006 77.2993 11.314 77.0125 11.5409 76.7894C11.7675 76.5669 12.0731 76.4552 12.4575 76.4552C12.7218 76.4552 12.9529 76.5076 13.1512 76.6123C13.3492 76.7164 13.5029 76.8667 13.6124 77.0615C13.7217 77.2567 13.7806 77.4865 13.7884 77.7508L13.3358 77.7919C13.3122 77.5099 13.228 77.3011 13.083 77.1651C12.9382 77.029 12.7345 76.961 12.4724 76.961C12.2062 76.961 12.0032 77.0205 11.8631 77.14C11.7231 77.2591 11.6532 77.4134 11.6532 77.6026C11.6532 77.7783 11.7045 77.914 11.8071 78.011C11.9095 78.1073 12.1402 78.2051 12.4988 78.304C12.8495 78.4012 13.0958 78.4854 13.2378 78.5566C13.4546 78.6674 13.6183 78.8133 13.7289 78.9934C13.8395 79.1737 13.8949 79.3886 13.8949 79.6388C13.8949 79.8869 13.8367 80.1128 13.7204 80.3167C13.604 80.5206 13.4458 80.6756 13.2458 80.7821C13.0456 80.8883 12.8045 80.9416 12.5226 80.9416C12.0831 80.9416 11.7326 80.8093 11.4714 80.5453C11.2099 80.2812 11.0747 79.9237 11.0647 79.4722Z" fill="#111211"/>
<path d="M17.0591 79.348L17.5323 79.493C17.4277 79.9798 17.2448 80.3432 16.9836 80.5825C16.7223 80.8219 16.4046 80.9421 16.0299 80.9421C15.7007 80.9421 15.4191 80.8615 15.1856 80.7009C14.9521 80.5399 14.7607 80.2821 14.6118 79.9269C14.4631 79.5718 14.3887 79.1525 14.3887 78.6692C14.3887 78.1917 14.4631 77.7879 14.612 77.4571C14.7612 77.1268 14.9629 76.8773 15.2174 76.7085C15.472 76.5401 15.7561 76.4554 16.07 76.4554C16.4133 76.4554 16.7085 76.5622 16.955 76.7756C17.2018 76.9888 17.3745 77.3024 17.4732 77.7153L17.0117 77.8485C16.8539 77.2472 16.5368 76.9463 16.0611 76.9463C15.8243 76.9463 15.6189 77.0069 15.4451 77.1284C15.2713 77.2498 15.1328 77.4387 15.0291 77.6952C14.9254 77.9517 14.8735 78.2764 14.8735 78.669C14.8735 79.2629 14.978 79.7083 15.1871 80.0055C15.396 80.3022 15.6741 80.4507 16.0211 80.4507C16.2773 80.4507 16.4988 80.3596 16.6851 80.1774C16.8715 79.9951 16.9959 79.7185 17.0591 79.348Z" fill="#111211"/>
<path d="M19.3452 77.1002V76.5887H21.6432V77.0028C21.3001 77.4484 20.9984 78.0283 20.738 78.7432C20.4779 79.4579 20.3281 80.1661 20.2885 80.8678H19.8419C19.848 80.5052 19.9054 80.0821 20.0147 79.5994C20.1238 79.1163 20.2737 78.656 20.4644 78.2181C20.6553 77.7807 20.8607 77.408 21.0811 77.1002H19.3452Z" fill="#111211"/>
<path d="M22.0779 79.7205L22.5125 79.6495C22.6034 80.2194 22.8337 80.5042 23.2029 80.5042C23.4025 80.5042 23.5754 80.4196 23.7215 80.2509C23.8678 80.0821 23.941 79.8633 23.941 79.5947C23.941 79.3421 23.8739 79.1387 23.7399 78.9846C23.6057 78.8305 23.4412 78.7538 23.246 78.7538C23.1631 78.7538 23.0607 78.7733 22.9385 78.8127L22.9887 78.3454L23.0568 78.3513C23.2726 78.3513 23.4477 78.2854 23.5824 78.1536C23.717 78.0218 23.7843 77.8456 23.7843 77.6253C23.7843 77.4227 23.7278 77.26 23.6153 77.137C23.5025 77.0141 23.3653 76.9524 23.2032 76.9524C23.0352 76.9524 22.8934 77.0171 22.7779 77.1461C22.6623 77.2755 22.5885 77.471 22.5569 77.7333L22.1223 77.6385C22.1774 77.268 22.3017 76.9879 22.4947 76.7987C22.688 76.6093 22.9216 76.5145 23.1958 76.5145C23.4834 76.5145 23.728 76.621 23.9291 76.834C24.1302 77.0465 24.2308 77.3147 24.2308 77.6379C24.2308 77.8348 24.1882 78.0093 24.1029 78.1608C24.0176 78.3127 23.8986 78.4318 23.7456 78.5183C23.8869 78.558 24.0038 78.6227 24.096 78.7134C24.1884 78.804 24.2629 78.9253 24.3198 79.0768C24.3767 79.2287 24.4053 79.398 24.4053 79.5854C24.4053 79.9834 24.288 80.309 24.0533 80.5622C23.8187 80.8152 23.5378 80.9418 23.2105 80.9418C22.9069 80.9418 22.6495 80.8314 22.4387 80.6107C22.2277 80.3899 22.1075 80.0932 22.0779 79.7205Z" fill="#111211"/>
<path d="M25.5141 78.5152C25.3396 78.4367 25.2078 78.3235 25.1186 78.1769C25.0295 78.0304 24.9849 77.8475 24.9849 77.6289C24.9849 77.2999 25.0816 77.032 25.2754 76.8251C25.4688 76.6184 25.7123 76.5149 26.0052 76.5149C26.3 76.5149 26.5452 76.6201 26.7409 76.8311C26.9365 77.0419 27.0344 77.3136 27.0344 77.6464C27.0344 77.8553 26.9909 78.0321 26.9043 78.1769C26.8175 78.322 26.6863 78.4345 26.511 78.5152C26.7259 78.6001 26.8909 78.7371 27.0062 78.9265C27.1216 79.1159 27.1792 79.3507 27.1792 79.6308C27.1792 80.0176 27.0675 80.3327 26.8439 80.5762C26.6205 80.8199 26.3433 80.9418 26.0126 80.9418C25.6779 80.9418 25.3987 80.8199 25.1751 80.5762C24.9518 80.3327 24.8401 80.0126 24.8401 79.6158C24.8401 79.3258 24.8996 79.0869 25.0189 78.8983C25.1379 78.71 25.3031 78.5821 25.5141 78.5152ZM25.2866 79.6169C25.2866 79.8829 25.3578 80.0976 25.5004 80.2602C25.6431 80.423 25.8139 80.5043 26.0126 80.5043C26.2132 80.5043 26.3833 80.4253 26.5231 80.2678C26.6627 80.11 26.7326 79.8989 26.7326 79.6347C26.7326 79.3687 26.6608 79.154 26.5173 78.9914C26.3736 78.8286 26.2015 78.7475 26.0006 78.7475C25.802 78.7475 25.6333 78.8282 25.4946 78.9899C25.3559 79.1516 25.2866 79.3607 25.2866 79.6169ZM25.4314 77.6133C25.4314 77.8257 25.4875 77.9951 25.5996 78.1211C25.7117 78.2469 25.8494 78.3098 26.0126 78.3098C26.1719 78.3098 26.3076 78.2479 26.4195 78.1239C26.5318 78.0001 26.5876 77.8397 26.5876 77.643C26.5876 77.4402 26.5303 77.2746 26.4151 77.1458C26.3002 77.0168 26.1638 76.9523 26.0065 76.9523C25.8494 76.9523 25.7141 77.0153 25.6011 77.1413C25.4879 77.267 25.4314 77.4246 25.4314 77.6133Z" fill="#111211"/>
<path d="M29.0011 80.868V79.83H27.4604V79.3419L29.0807 76.5325H29.4387V79.3419H29.9207V79.83H29.4387V80.868H29.0011ZM29.0011 79.3419V77.3872L27.8903 79.3419H29.0011Z" fill="#111211"/>
<path d="M31.6623 79.0314H30.3228V79.5668H31.6623V79.0314Z" fill="#111211"/>
<path d="M33.6617 80.8681H33.224V77.4758C33.1234 77.5944 32.9883 77.7149 32.8189 77.8383C32.6492 77.9613 32.4935 78.0548 32.3516 78.1177V77.6033C32.592 77.4649 32.8046 77.2966 32.989 77.0972C33.1732 76.8981 33.3028 76.7042 33.3779 76.5148H33.6617V80.8681Z" fill="#111211"/>
<path d="M62.4768 66.12C58.3278 66.12 54.9529 62.7448 54.9529 58.5959V8.05773C54.9529 3.90725 58.3278 0.529907 62.4768 0.529907H92.1111C96.26 0.529907 99.635 3.90725 99.635 8.05773V58.5961C99.635 62.745 96.26 66.1202 92.1111 66.1202H62.4768V66.12ZM57.0684 58.5961C57.0684 61.5784 59.4951 64.0045 62.4768 64.0045H92.1111C95.0934 64.0045 97.5195 61.5784 97.5195 58.5961V41.291C91.4198 44.9025 84.4577 46.8063 77.3201 46.8063C70.1646 46.8063 63.1831 44.8913 57.0684 41.2613V58.5961Z" fill="#0090D1"/>
<path d="M92.111 1.05928C95.9751 1.05928 99.1066 4.19313 99.1066 8.05725V58.5963C99.1066 62.4606 95.9751 65.591 92.111 65.591H62.4767C58.6126 65.591 55.482 62.4604 55.482 58.5963V8.05725C55.482 4.19313 58.6126 1.05928 62.4767 1.05928H92.111ZM62.4767 64.5339H92.111C95.3829 64.5339 98.0484 61.8714 98.0484 58.5963V40.3501C92.0331 44.109 84.9288 46.2766 77.3207 46.2766C69.6868 46.2766 62.5648 44.0949 56.5393 40.318V58.5963C56.5393 61.8714 59.2009 64.5339 62.4767 64.5339ZM92.111 0.00109863H62.4767C58.0367 0.00109863 54.4238 3.6148 54.4238 8.05725V58.5963C54.4238 63.0363 58.0367 66.6494 62.4767 66.6494H92.111C96.5519 66.6494 100.164 63.0363 100.164 58.5963V8.05725C100.164 3.6148 96.5519 0.00109863 92.111 0.00109863ZM62.4767 63.4759C59.7862 63.4759 57.5973 61.2871 57.5973 58.5965V42.177C63.5996 45.5565 70.379 47.335 77.3207 47.335C84.2431 47.335 91.0037 45.5667 96.9911 42.2067V58.5967C96.9911 61.2873 94.8016 63.4761 92.111 63.4761H62.4767V63.4759Z" fill="white"/>
<path d="M98.0486 40.35V58.5964C98.0486 61.8716 95.3829 64.5332 92.1112 64.5332H62.4772C59.2013 64.5332 56.5396 61.8716 56.5396 58.5964V40.318C62.5653 44.0949 69.6873 46.2766 77.3211 46.2766C84.929 46.2766 92.0331 44.109 98.0486 40.35Z" fill="white"/>
<path d="M63.1917 51.9355H62.2437V56.9319H63.1917V51.9355Z" fill="#0090D1"/>
<path d="M64.1608 56.6006L64.3738 55.8292C64.555 55.9227 64.7608 56.0048 64.9911 56.0758C65.2212 56.1468 65.432 56.1827 65.6231 56.1827C65.9166 56.1827 66.1398 56.1357 66.2919 56.0429C66.4432 55.9494 66.519 55.8152 66.519 55.6388C66.519 55.5165 66.4597 55.4046 66.3395 55.3039C66.2194 55.2042 66.0344 55.0855 65.7848 54.9481L65.5638 54.8154C65.2361 54.6198 64.9755 54.4503 64.782 54.3092C64.5885 54.167 64.4214 53.9986 64.2818 53.8051C64.1429 53.6114 64.0728 53.3954 64.0728 53.1549C64.0728 52.9006 64.1414 52.6711 64.2786 52.4683C64.416 52.2647 64.6126 52.1054 64.8701 51.9907C65.1268 51.8753 65.4344 51.8175 65.7924 51.8175C66.2131 51.8175 66.6837 51.9424 67.2025 52.1926L66.8865 52.9566C66.6861 52.8582 66.5034 52.7826 66.3395 52.7287C66.1748 52.6748 65.9978 52.6476 65.8064 52.6476C65.5865 52.6476 65.4062 52.6913 65.2666 52.7763C65.1268 52.862 65.0573 52.9878 65.0573 53.1547C65.0573 53.2969 65.1121 53.4155 65.2229 53.5114C65.3329 53.6064 65.5132 53.7276 65.7627 53.875L65.9978 54.0066L66.2108 54.1315C66.4995 54.2986 66.7304 54.4444 66.9014 54.5693C67.0731 54.6934 67.2166 54.8455 67.3313 55.0243C67.446 55.2037 67.5038 55.4128 67.5038 55.6524C67.5038 55.9223 67.4319 56.1595 67.2869 56.3656C67.1425 56.5716 66.9293 56.7322 66.6484 56.8502C66.3659 56.9679 66.0298 57.0264 65.6372 57.0264C65.432 57.0264 65.176 56.9809 64.8701 56.8904C64.5634 56.8004 64.3277 56.7037 64.1608 56.6006Z" fill="#0090D1"/>
<path d="M70.3919 51.8175C70.896 51.8175 71.3345 51.9313 71.7068 52.1593C72.0789 52.3872 72.3622 52.6969 72.5557 53.0887C72.7492 53.4806 72.8453 53.9189 72.8453 54.4042C72.8453 54.913 72.7429 55.3656 72.5368 55.7598C72.331 56.1537 72.0438 56.4619 71.6739 56.685C71.304 56.9082 70.8765 57.0246 70.3919 57.0339C69.887 57.0339 69.45 56.9201 69.0801 56.6922C68.7095 56.4641 68.4286 56.1559 68.2351 55.7667C68.0416 55.3773 67.9448 54.9403 67.9448 54.4551C67.9448 53.951 68.047 53.4999 68.2498 53.1034C68.4528 52.7062 68.7407 52.3954 69.113 52.1701C69.485 51.9448 69.9112 51.8268 70.3919 51.8175ZM68.9366 54.4481C68.9366 54.7953 68.995 55.1059 69.113 55.3775C69.2307 55.6489 69.3984 55.8598 69.6162 56.0095C69.8339 56.1587 70.09 56.2336 70.3841 56.2336C70.6588 56.2336 70.9068 56.1662 71.13 56.0312C71.3525 55.8972 71.5295 55.6912 71.6592 55.4139C71.7886 55.1377 71.8533 54.8007 71.8533 54.4042C71.8533 54.0609 71.7949 53.7551 71.6771 53.485C71.56 53.2157 71.3906 53.006 71.1707 52.8538C70.9497 52.7017 70.6954 52.6259 70.406 52.6259C70.1413 52.6259 69.898 52.6999 69.6755 52.8499C69.4523 52.9988 69.2729 53.2127 69.1387 53.4889C69.0037 53.7659 68.9366 54.086 68.9366 54.4481Z" fill="#0090D1"/>
<path d="M76.0267 56.9313V53.8312L75.1893 54.1542L74.8293 53.4417L76.3427 52.7731H76.9816V56.9313H76.0267Z" fill="#0090D1"/>
<path d="M81.332 56.4983H80.6554V57.4385H79.6933V56.4983H77.6581L77.5332 55.7117L79.9428 52.7363H80.6554V55.7117H81.427L81.332 56.4983ZM78.5619 55.7117H79.6935V54.2642L78.5619 55.7117Z" fill="#0090D1"/>
<path d="M81.7573 54.8374C81.7573 54.4261 81.8456 54.0562 82.022 53.7285C82.1991 53.3998 82.4417 53.1424 82.7532 52.9567C83.0644 52.7703 83.4157 52.6775 83.8072 52.6775C84.1951 52.6775 84.5431 52.7695 84.8546 52.9528C85.1658 53.1363 85.4078 53.392 85.5818 53.7207C85.7559 54.0493 85.8424 54.4168 85.8424 54.8226C85.8424 55.2438 85.7541 55.6224 85.5786 55.9579C85.4024 56.2934 85.158 56.5557 84.8468 56.7438C84.5362 56.9325 84.1873 57.0269 83.8003 57.0269C83.4133 57.0269 83.0644 56.9325 82.7532 56.7438C82.4417 56.5557 82.1991 56.2951 82.022 55.9611C81.8456 55.6287 81.7573 55.254 81.7573 54.8374ZM82.6322 54.8155C82.6322 55.08 82.6822 55.3187 82.7828 55.5321C82.8826 55.7449 83.0224 55.9113 83.201 56.0315C83.3804 56.1516 83.5817 56.2118 83.8072 56.2118C84.0328 56.2118 84.2349 56.1525 84.4137 56.0354C84.5931 55.9176 84.7321 55.7559 84.8327 55.5503C84.9325 55.3449 84.9832 55.1125 84.9832 54.8525C84.9832 54.5926 84.9319 54.3595 84.8288 54.1508C84.7258 53.9426 84.5853 53.7794 84.4066 53.6625C84.228 53.5446 84.0258 53.4863 83.8003 53.4863C83.5802 53.4863 83.3804 53.5441 83.201 53.6588C83.0224 53.7733 82.8826 53.9318 82.7828 54.1324C82.6822 54.3326 82.6322 54.5603 82.6322 54.8155Z" fill="#0090D1"/>
<path d="M86.2104 54.8374C86.2104 54.4261 86.2985 54.0562 86.4749 53.7285C86.6513 53.3998 86.8948 53.1424 87.2054 52.9567C87.5167 52.7703 87.868 52.6775 88.2595 52.6775C88.6474 52.6775 88.9963 52.7695 89.3069 52.9528C89.6181 53.1363 89.8607 53.392 90.0341 53.7207C90.2081 54.0493 90.2947 54.4168 90.2947 54.8226C90.2947 55.2438 90.2064 55.6224 90.0309 55.9579C89.8547 56.2934 89.6103 56.5557 89.2997 56.7438C88.9885 56.9325 88.6396 57.0269 88.2526 57.0269C87.8656 57.0269 87.5167 56.9325 87.2054 56.7438C86.8948 56.5557 86.6513 56.2951 86.4749 55.9611C86.2988 55.6287 86.2104 55.254 86.2104 54.8374ZM87.0844 54.8155C87.0844 55.08 87.1351 55.3187 87.2351 55.5321C87.3357 55.7449 87.4747 55.9113 87.6541 56.0315C87.8327 56.1516 88.0348 56.2118 88.2595 56.2118C88.4859 56.2118 88.6872 56.1525 88.8666 56.0354C89.0454 55.9176 89.1843 55.7559 89.285 55.5503C89.3856 55.3449 89.4354 55.1125 89.4354 54.8525C89.4354 54.5926 89.3841 54.3595 89.2811 54.1508C89.1781 53.9426 89.0376 53.7794 88.8588 53.6625C88.6803 53.5446 88.4781 53.4863 88.2526 53.4863C88.0324 53.4863 87.8327 53.5441 87.6541 53.6588C87.4747 53.7733 87.3357 53.9318 87.2351 54.1324C87.1351 54.3326 87.0844 54.5603 87.0844 54.8155Z" fill="#0090D1"/>
<path d="M91.7501 56.9313V53.8312L90.9127 54.1542L90.5527 53.4417L92.0661 52.7731H92.7052V56.9313H91.7501Z" fill="#0090D1"/>
<path d="M77.2975 20.6667C75.4402 20.666 73.9303 19.1538 73.9312 17.2965C73.9327 15.4394 75.4449 13.9295 77.3022 13.931C79.1601 13.9325 80.6692 15.444 80.6683 17.3012C80.6668 19.1592 79.1543 20.6682 77.2975 20.6667ZM77.3011 15.1779C76.1315 15.1771 75.1794 16.1283 75.1787 17.2973C75.1778 18.467 76.1291 19.4191 77.2979 19.4198C78.4678 19.4206 79.4197 18.4702 79.4205 17.3012C79.4214 16.1307 78.4704 15.1788 77.3011 15.1779Z" fill="white"/>
<path d="M71.1231 22.6044C69.8972 21.1748 69.1543 19.3193 69.1559 17.2936C69.1574 15.6783 69.6318 14.1738 70.445 12.9074L69.447 12.1544C68.4771 13.6323 67.9098 15.3958 67.9089 17.2921C67.9066 19.6625 68.7883 21.8304 70.2389 23.4877L71.1231 22.6044Z" fill="white"/>
<path d="M70.2385 11.1102L71.1218 11.9943C71.3926 11.6783 71.6876 11.3833 72.0027 11.1117L71.1194 10.2284C70.8073 10.5024 70.5132 10.7974 70.2385 11.1102Z" fill="white"/>
<path d="M77.3264 7.88818C75.4208 7.88732 73.6465 8.45699 72.1621 9.43487L72.9136 10.4329C74.1871 9.61192 75.7009 9.13445 77.3255 9.13597C79.4527 9.13683 81.4355 9.94134 82.94 11.3763L84.0294 10.7021C82.2706 8.90373 79.8897 7.89078 77.3264 7.88818Z" fill="white"/>
<path d="M81.0744 20.792C80.1357 21.8002 78.799 22.4316 77.3155 22.4307C74.4862 22.4283 72.1865 20.125 72.1882 17.2954C72.1904 14.4653 74.4931 12.1656 77.3226 12.168C78.3706 12.1688 79.3741 12.4887 80.2145 13.0629L81.3521 12.3591C80.2286 11.4407 78.813 10.921 77.3242 10.9202C73.8072 10.9178 70.9435 13.777 70.9404 17.2946C70.9381 20.8115 73.7979 23.6753 77.3148 23.6776C79.2141 23.6792 80.9207 22.8459 82.0919 21.5256L81.0744 20.792Z" fill="white"/>
<path d="M81.8588 24.0797C80.5589 24.9537 78.9942 25.4632 77.3134 25.4626C75.287 25.4609 73.433 24.715 72.0049 23.4867L71.1201 24.37C72.775 25.8238 74.942 26.7071 77.3127 26.7095C79.2854 26.711 81.1175 26.1009 82.6328 25.0607L81.8588 24.0797Z" fill="white"/>
<path d="M84.8693 11.6471L81.2229 13.9037C81.2229 13.9037 82.451 15.3309 82.451 17.3029C82.451 18.2018 82.217 19.0476 81.8082 19.782L82.8241 20.5162C83.378 19.5712 83.6981 18.4749 83.6981 17.3036C83.6996 16.251 83.4412 15.2225 82.9512 14.3017L84.4721 13.36C85.1362 14.5641 85.4833 15.9162 85.4827 17.3053C85.4812 19.6775 84.4611 21.8155 82.8389 23.3074L83.6131 24.2883C85.524 22.5661 86.7302 20.0747 86.7302 17.3059C86.7302 13.9552 84.8693 11.6471 84.8693 11.6471Z" fill="white"/>
<path d="M70.6099 31.3818C69.1547 31.3812 67.9693 32.561 67.9678 34.0131C67.9669 35.4646 69.1508 36.6459 70.606 36.6474C72.0628 36.6483 73.2489 35.4685 73.2498 34.017C73.2505 32.5656 72.0667 31.3834 70.6099 31.3818ZM70.6068 35.5667C69.7478 35.5659 69.05 34.8691 69.0508 34.014C69.0508 33.158 69.7499 32.4625 70.6092 32.4634C71.4683 32.4634 72.1659 33.1603 72.1659 34.0161C72.1652 34.8715 71.4659 35.5676 70.6068 35.5667Z" fill="white"/>
<path d="M61.7716 36.4829L60.6682 36.482L60.6713 31.9835L61.7747 31.985L61.7716 36.4829ZM61.2215 31.4099C60.8461 31.4099 60.552 31.1167 60.552 30.742C60.5527 30.3673 60.8468 30.0747 61.2223 30.0747C61.5983 30.0747 61.8918 30.3691 61.8918 30.7435C61.8909 31.1173 61.5968 31.4099 61.2215 31.4099Z" fill="white"/>
<path d="M76.7771 31.3696C75.3203 31.3688 74.1342 32.5488 74.1333 34.0009V36.53L75.2975 36.5307L75.2993 33.9197C75.2999 33.1089 75.9616 32.4497 76.7763 32.4503C77.5793 32.4512 78.2349 33.0949 78.2504 33.8916L78.2481 36.533L79.4147 36.5339L79.4162 34.0048C79.4171 32.5518 78.2331 31.3705 76.7771 31.3696Z" fill="white"/>
<path d="M82.9633 35.6546C82.9633 35.6546 82.7908 35.6678 82.7231 35.6678C82.2487 35.6678 82.0231 35.5485 82.0231 34.8767L82.0253 32.3023L83.0101 32.3032L83.011 31.4448L82.0285 31.4439L82.0292 30.4342L80.8643 30.4333V31.4433L80.194 31.4424L80.1931 32.296L80.8634 32.2976L80.8611 34.7174C80.8611 35.0687 80.8868 35.5805 81.1093 35.984C81.3535 36.4294 81.785 36.655 82.393 36.6558C82.6863 36.6558 82.9625 36.6004 82.9625 36.6004L82.9633 35.6546Z" fill="white"/>
<path d="M65.4482 36.6564C63.985 36.6564 62.7944 35.4673 62.7959 34.0089C62.7965 32.5503 63.9883 31.366 65.4521 31.366C66.6903 31.366 67.3803 32.1945 67.3803 32.1945L66.6747 33.067C66.6747 33.067 66.2386 32.4715 65.4512 32.4715C64.5991 32.4715 63.9062 33.1613 63.9054 34.0096C63.9047 34.8587 64.5969 35.55 65.449 35.55C66.2574 35.55 66.6825 34.9437 66.6825 34.9437L67.3927 35.8145C67.3927 35.8145 66.6873 36.6564 65.4482 36.6564Z" fill="white"/>
<path d="M92.1427 36.6564C90.6796 36.6564 89.489 35.4673 89.4905 34.0089C89.4911 32.5503 90.6829 31.366 92.1466 31.366C93.3849 31.366 94.0749 32.1945 94.0749 32.1945L93.3687 33.067C93.3687 33.067 92.9332 32.4715 92.1458 32.4715C91.2937 32.4715 90.6008 33.1613 90.6 34.0096C90.5993 34.8587 91.2915 35.55 92.1436 35.55C92.952 35.55 93.378 34.9437 93.378 34.9437L94.0873 35.8145C94.0873 35.8145 93.3817 36.6564 92.1427 36.6564Z" fill="white"/>
<path d="M86.2064 31.3433C84.6582 31.3433 83.7273 32.6255 83.7273 34.0183C83.7273 35.571 84.8097 36.6582 86.3625 36.6582C87.9224 36.6582 88.5232 35.4901 88.5232 35.4901L87.7273 34.8938C87.7273 34.8938 87.3215 35.6123 86.3828 35.6123C85.5556 35.6123 84.9227 35.0951 84.8721 34.3195L88.6355 34.3226C88.6355 34.3226 88.6526 34.0791 88.6526 33.9934C88.6526 32.8564 88.0862 31.3433 86.2064 31.3433ZM84.9158 33.4627C85.0078 32.7938 85.5549 32.3508 86.2151 32.3508C86.907 32.3514 87.4129 32.7861 87.4767 33.465L84.9158 33.4627Z" fill="white"/>
<path d="M56.9646 79.4197L57.4081 79.3723C57.4319 79.611 57.4856 79.7967 57.5693 79.9298C57.6531 80.0627 57.7728 80.1697 57.9286 80.2504C58.0845 80.3313 58.26 80.372 58.4552 80.372C58.7351 80.372 58.9524 80.3036 59.1071 80.1668C59.2619 80.0303 59.3394 79.8526 59.3394 79.6342C59.3394 79.5063 59.3113 79.3946 59.255 79.2993C59.1989 79.2039 59.1141 79.1253 59.0007 79.0647C58.8872 79.0037 58.6424 78.9171 58.2658 78.8059C57.9306 78.7065 57.6921 78.6065 57.5501 78.5059C57.4081 78.4052 57.2977 78.2775 57.2189 78.1228C57.1401 77.9678 57.1005 77.7931 57.1005 77.5977C57.1005 77.2468 57.2139 76.96 57.4408 76.7371C57.6674 76.5144 57.973 76.4027 58.3574 76.4027C58.6217 76.4027 58.8528 76.4551 59.0511 76.5598C59.2491 76.664 59.4028 76.8142 59.5123 77.0092C59.6216 77.2042 59.6805 77.4341 59.6883 77.6983L59.2357 77.7397C59.2121 77.4574 59.1279 77.2486 58.9829 77.1129C58.8381 76.9767 58.6344 76.909 58.3723 76.909C58.1061 76.909 57.9031 76.9683 57.763 77.0877C57.623 77.207 57.5531 77.3613 57.5531 77.5505C57.5531 77.726 57.6044 77.8617 57.707 77.9587C57.8094 78.0552 58.0401 78.1531 58.3987 78.2518C58.7494 78.3489 58.9957 78.4334 59.1377 78.5044C59.3545 78.6154 59.5182 78.7611 59.6288 78.9411C59.7394 79.1214 59.7948 79.3366 59.7948 79.5866C59.7948 79.8346 59.7366 80.0606 59.6203 80.2647C59.5039 80.4683 59.3457 80.6233 59.1457 80.7298C58.9455 80.8361 58.7044 80.8893 58.4225 80.8893C57.983 80.8893 57.6325 80.7571 57.3713 80.493C57.1098 80.229 56.9746 79.8712 56.9646 79.4197Z" fill="#111211"/>
<path d="M60.0461 80.8152L61.4173 76.4801H61.9203L63.3761 80.8152H62.838L62.4244 79.5025H60.9288L60.5422 80.8152H60.0461ZM61.0662 79.035H62.2772L61.9077 77.8344C61.7935 77.4658 61.7097 77.166 61.6565 76.9353C61.6106 77.2134 61.5456 77.4896 61.4617 77.7634L61.0662 79.035Z" fill="#111211"/>
<path d="M64.8608 78.9789H63.5212V79.5144H64.8608V78.9789Z" fill="#111211"/>
<path d="M67.9246 79.2951L68.3977 79.4401C68.2932 79.9269 68.1103 80.2906 67.8491 80.5297C67.5878 80.7693 67.2701 80.8892 66.8954 80.8892C66.5662 80.8892 66.2846 80.8087 66.0511 80.6481C65.8175 80.4871 65.6262 80.2293 65.4773 79.8741C65.3286 79.5189 65.2542 79.0999 65.2542 78.6164C65.2542 78.1389 65.3286 77.735 65.4775 77.4045C65.6266 77.074 65.8284 76.8245 66.0829 76.6559C66.3374 76.4872 66.6216 76.4028 66.9355 76.4028C67.2787 76.4028 67.574 76.5093 67.8205 76.7229C68.0672 76.9364 68.24 77.2498 68.3387 77.6627L67.8772 77.7958C67.7194 77.1946 67.4023 76.8937 66.9266 76.8937C66.6898 76.8937 66.4844 76.9545 66.3106 77.0757C66.1368 77.1974 65.9983 77.3863 65.8946 77.6426C65.7909 77.8989 65.739 78.2237 65.739 78.6164C65.739 79.2103 65.8435 79.6557 66.0526 79.9529C66.2615 80.2496 66.5396 80.3983 66.8866 80.3983C67.1428 80.3983 67.3642 80.307 67.5504 80.1248C67.7367 79.9425 67.8614 79.6659 67.9246 79.2951Z" fill="#111211"/>
<path d="M68.9951 80.8155V76.48H71.5649V76.9916H69.4654V78.3167H71.432V78.8279H69.4654V80.3038H71.6478V80.8155H68.9951Z" fill="#111211"/>
<path d="M72.2954 80.8152V76.4801H73.8717C74.201 76.4801 74.444 76.5206 74.6007 76.6013C74.7574 76.682 74.8862 76.8165 74.9866 77.0048C75.0873 77.1928 75.1375 77.411 75.1375 77.6591C75.1375 77.9863 75.0522 78.2512 74.8817 78.4543C74.7111 78.6573 74.4633 78.7861 74.138 78.8413C74.27 78.9207 74.3704 79.001 74.4395 79.0824C74.5795 79.2482 74.7027 79.4324 74.8092 79.6354L75.4301 80.8152H74.8388L74.3646 79.9139C74.181 79.5611 74.0423 79.3237 73.9488 79.2012C73.8553 79.0789 73.7646 78.9965 73.677 78.9538C73.5893 78.9114 73.4668 78.8902 73.3092 78.8902H72.7657V80.8152H72.2954ZM72.7657 78.3932H73.7772C73.9979 78.3932 74.1655 78.3666 74.28 78.3134C74.3942 78.2601 74.4849 78.1764 74.5518 78.0621C74.6189 77.9478 74.6525 77.8147 74.6525 77.6627C74.6525 77.4437 74.5884 77.2718 74.4603 77.1467C74.3321 77.0216 74.1419 76.9589 73.8895 76.9589H72.7657V78.3932Z" fill="#111211"/>
<path d="M75.8916 80.8155V76.48H78.4614V76.9916H76.3619V78.3167H78.3285V78.8279H76.3619V80.3038H78.5443V80.8155H75.8916Z" fill="#111211"/>
<path d="M80.3896 79.6798L80.8481 79.6326C80.8836 79.9086 80.9639 80.114 81.089 80.249C81.2141 80.3841 81.3595 80.4518 81.5253 80.4518C81.7322 80.4518 81.9106 80.3566 82.0606 80.1661C82.2104 79.9757 82.2852 79.7155 82.2852 79.3859C82.2852 79.0757 82.2127 78.8354 82.0679 78.6647C81.9229 78.4939 81.7411 78.4084 81.5223 78.4084C81.3903 78.4084 81.2665 78.4454 81.1511 78.5197C81.0357 78.5939 80.9446 78.6969 80.8775 78.8296L80.4665 78.7644L80.8126 76.5366H82.5781V77.0453H81.1593L80.9691 78.2117C81.1801 78.0294 81.4039 77.9383 81.6405 77.9383C81.9383 77.9383 82.1969 78.0651 82.4168 78.3188C82.6367 78.5722 82.7467 78.9142 82.7467 79.3445C82.7467 79.7687 82.6367 80.1324 82.4168 80.4354C82.1969 80.7384 81.9017 80.8897 81.5312 80.8897C81.2236 80.8897 80.9639 80.783 80.752 80.5691C80.5399 80.3546 80.4193 80.0583 80.3896 79.6798Z" fill="#111211"/>
<path d="M83.2168 79.8129L83.6367 79.7655C83.7035 80.2228 83.9007 80.4516 84.228 80.4516C84.3741 80.4516 84.5065 80.4018 84.6258 80.3023C84.7451 80.2027 84.8461 80.0259 84.929 79.7713C85.0117 79.517 85.0533 79.2203 85.0533 78.8813V78.7748C84.9626 78.9504 84.8403 79.0895 84.6866 79.1919C84.5327 79.2945 84.376 79.3458 84.2163 79.3458C83.9265 79.3458 83.6767 79.2192 83.4665 78.9657C83.2566 78.7125 83.1516 78.366 83.1516 77.9262C83.1516 77.4727 83.2605 77.1156 83.4784 76.8543C83.6962 76.5931 83.9609 76.4622 84.2726 76.4622C84.4933 76.4622 84.6994 76.5353 84.8903 76.6814C85.0816 76.8273 85.2294 77.042 85.334 77.326C85.4383 77.6102 85.4907 78.019 85.4907 78.5532C85.4907 79.1486 85.4344 79.6112 85.3221 79.9402C85.2098 80.2696 85.0574 80.51 84.8652 80.6618C84.673 80.8137 84.4576 80.8895 84.2191 80.8895C83.949 80.8895 83.7232 80.7975 83.5419 80.6133C83.3607 80.4284 83.2523 80.1618 83.2168 79.8129ZM85.0059 77.898C85.0059 77.5879 84.9366 77.3439 84.7983 77.1665C84.6602 76.9888 84.5011 76.8998 84.3213 76.8998C84.1336 76.8998 83.9661 76.9946 83.8189 77.184C83.6717 77.3738 83.5981 77.6266 83.5981 77.9424C83.5981 78.2266 83.6683 78.4532 83.8085 78.6222C83.9488 78.7911 84.1167 78.8753 84.3124 78.8753C84.5059 78.8753 84.6699 78.7906 84.8044 78.6207C84.9388 78.4508 85.0059 78.2099 85.0059 77.898Z" fill="#111211"/>
<path d="M85.9436 77.0478V76.5361H88.2416V76.9502C87.8985 77.3958 87.5968 77.9759 87.3364 78.6906C87.0762 79.4053 86.9265 80.1137 86.8869 80.8154H86.4403C86.4464 80.4526 86.5038 80.0295 86.6131 79.5468C86.7221 79.0637 86.8721 78.6034 87.0628 78.1657C87.2537 77.7281 87.4591 77.3554 87.6795 77.0478H85.9436Z" fill="#111211"/>
<path d="M88.676 79.6798L89.1344 79.6326C89.1699 79.9086 89.2502 80.114 89.3753 80.249C89.5004 80.3841 89.6459 80.4518 89.8117 80.4518C90.0186 80.4518 90.197 80.3566 90.347 80.1661C90.4967 79.9757 90.5716 79.7155 90.5716 79.3859C90.5716 79.0757 90.4991 78.8354 90.3543 78.6647C90.2093 78.4939 90.0275 78.4084 89.8087 78.4084C89.6766 78.4084 89.5528 78.4454 89.4375 78.5197C89.3221 78.5939 89.231 78.6969 89.1639 78.8296L88.7529 78.7644L89.0989 76.5366H90.8645V77.0453H89.4457L89.2554 78.2117C89.4665 78.0294 89.6903 77.9383 89.9268 77.9383C90.2247 77.9383 90.4833 78.0651 90.7032 78.3188C90.9231 78.5722 91.0331 78.9142 91.0331 79.3445C91.0331 79.7687 90.9231 80.1324 90.7032 80.4354C90.4833 80.7384 90.1881 80.8897 89.8175 80.8897C89.51 80.8897 89.2502 80.783 89.0383 80.5691C88.8262 80.3546 88.7057 80.0583 88.676 79.6798Z" fill="#111211"/>
<path d="M93.7391 80.304V80.8155H91.3881C91.382 80.6083 91.4446 80.3765 91.5758 80.12C91.7069 79.8636 91.9469 79.5608 92.2959 79.2116C92.7041 78.8052 92.9711 78.4909 93.0973 78.269C93.2235 78.0472 93.2865 77.8403 93.2865 77.6489C93.2865 77.428 93.222 77.2479 93.093 77.1087C92.9638 76.9697 92.8045 76.9 92.6153 76.9C92.4123 76.9 92.2456 76.9754 92.1156 77.1256C91.9855 77.276 91.9203 77.4916 91.9203 77.7725L91.4708 77.7165C91.5024 77.3 91.6201 76.9873 91.8242 76.7771C92.0283 76.5672 92.2969 76.4624 92.63 76.4624C92.9928 76.4624 93.2675 76.5845 93.4536 76.8286C93.64 77.073 93.7332 77.3509 93.7332 77.6624C93.7332 77.9381 93.6603 78.2028 93.5144 78.456C93.3683 78.7093 93.0915 79.0469 92.6833 79.4692C92.4231 79.7354 92.2549 79.9172 92.1792 80.014C92.1032 80.1105 92.0417 80.2075 91.9943 80.3042L93.7391 80.304Z" fill="#111211"/>
<path d="M96.4627 77.5386L96.0281 77.5799C95.9868 77.3583 95.9257 77.2003 95.845 77.1059C95.729 76.9684 95.5894 76.8998 95.426 76.8998C95.1723 76.8998 94.9686 77.0576 94.8152 77.3732C94.6833 77.6453 94.6165 78.0474 94.6145 78.5799C94.7149 78.3907 94.8411 78.247 94.9931 78.1496C95.1448 78.0519 95.3054 78.003 95.4751 78.003C95.7569 78.003 96.003 78.1307 96.2127 78.3861C96.4229 78.6413 96.5279 78.9831 96.5279 79.4108C96.5279 79.7006 96.475 79.9633 96.3696 80.1988C96.2642 80.4345 96.1285 80.6088 95.9629 80.7209C95.7974 80.833 95.6149 80.8895 95.4158 80.8895C95.0569 80.8895 94.7613 80.7278 94.5286 80.4044C94.2959 80.0811 94.1797 79.5419 94.1797 78.7868C94.1797 77.9489 94.2989 77.3518 94.537 76.9961C94.7753 76.6403 95.0805 76.4624 95.4528 76.4624C95.7225 76.4624 95.9484 76.5544 96.1305 76.7379C96.3125 76.9219 96.4231 77.1886 96.4627 77.5386ZM94.6823 79.4108C94.6823 79.7242 94.7561 79.9759 94.9041 80.1664C95.0519 80.3566 95.2234 80.4516 95.4186 80.4516C95.59 80.4516 95.7435 80.3618 95.8785 80.1824C96.0134 80.0032 96.0811 79.7566 96.0811 79.4432C96.0811 79.1355 96.014 78.8974 95.8798 78.7275C95.7459 78.558 95.5822 78.4731 95.3892 78.4731C95.1998 78.4731 95.0346 78.5573 94.8937 78.7259C94.7528 78.8948 94.6823 79.1229 94.6823 79.4108Z" fill="#111211"/>
<path d="M117.09 66.2673C112.941 66.2673 109.566 62.8924 109.566 58.7434V8.20507C109.566 4.05459 112.941 0.677246 117.09 0.677246H146.724C150.873 0.677246 154.248 4.05459 154.248 8.20507V58.7434C154.248 62.8924 150.873 66.2673 146.724 66.2673H117.09ZM111.682 58.7434C111.682 61.7258 114.108 64.1519 117.09 64.1519H146.725C149.707 64.1519 152.133 61.7258 152.133 58.7434V41.4383C146.033 45.0498 139.071 46.9537 131.933 46.9537C124.778 46.9537 117.797 45.0384 111.682 41.4087L111.682 58.7434Z" fill="#0090D1"/>
<path d="M146.651 1.17942C150.515 1.17942 153.646 4.31306 153.646 8.1774V58.7164C153.646 62.5807 150.515 65.7113 146.651 65.7113H117.016C113.152 65.7113 110.021 62.5805 110.021 58.7164V8.1774C110.021 4.31306 113.152 1.17942 117.016 1.17942H146.651ZM117.016 64.6538H146.651C149.922 64.6538 152.588 61.9914 152.588 58.7164V40.4702C146.573 44.2289 139.469 46.3968 131.86 46.3968C124.226 46.3968 117.104 44.2148 111.079 40.4382V58.7164C111.079 61.9914 113.74 64.6538 117.016 64.6538ZM146.651 0.12146H117.016C112.576 0.12146 108.963 3.73516 108.963 8.17762V58.7166C108.963 63.1567 112.576 66.7695 117.016 66.7695H146.651C151.091 66.7695 154.703 63.1567 154.703 58.7166V8.17762C154.703 3.73495 151.091 0.12146 146.651 0.12146Z" fill="white"/>
<path d="M131.979 15.303C130.826 15.303 129.888 16.2411 129.888 17.3938C129.888 18.5468 130.826 19.4851 131.979 19.4851C133.132 19.4851 134.07 18.5468 134.07 17.3938C134.07 16.2411 133.132 15.303 131.979 15.303ZM131.979 20.7147C130.148 20.7147 128.658 19.2253 128.658 17.394C128.658 15.5629 130.148 14.0736 131.979 14.0736C133.81 14.0736 135.299 15.5629 135.299 17.394C135.299 19.2251 133.81 20.7147 131.979 20.7147Z" fill="white"/>
<path d="M125.894 22.6292C124.685 21.2206 123.951 19.3918 123.951 17.3941C123.951 15.8028 124.417 14.3193 125.218 13.0694L124.234 12.3276C123.279 13.7854 122.721 15.5251 122.721 17.3941C122.721 19.7308 123.591 21.8671 125.023 23.5001L125.894 22.6292Z" fill="white"/>
<path d="M125.014 11.2982L125.885 12.1696C126.152 11.8577 126.442 11.5666 126.753 11.2987L125.882 10.4275C125.574 10.6985 125.284 10.9894 125.014 11.2982Z" fill="white"/>
<path d="M131.999 8.1167C130.12 8.1167 128.371 8.68053 126.909 9.64499L127.65 10.6287C128.905 9.81858 130.397 9.34652 131.999 9.34652C134.095 9.34652 136.051 10.1376 137.535 11.5514L138.609 10.8858C136.874 9.11428 134.526 8.1167 131.999 8.1167Z" fill="white"/>
<path d="M135.703 20.8344C134.778 21.829 133.46 22.453 131.998 22.453C129.209 22.453 126.94 20.1834 126.94 17.3943C126.94 14.6046 129.209 12.3354 131.998 12.3354C133.032 12.3354 134.02 12.6506 134.849 13.2159L135.971 12.5209C134.863 11.6171 133.467 11.1058 131.998 11.1058C128.531 11.1058 125.71 13.9265 125.71 17.3943C125.71 20.8617 128.531 23.6824 131.998 23.6824C133.871 23.6824 135.553 22.8595 136.706 21.5571L135.703 20.8344Z" fill="white"/>
<path d="M136.479 24.0758C135.197 24.9379 133.655 25.4416 131.999 25.4416C130.001 25.4416 128.172 24.7083 126.763 23.4982L125.893 24.3693C127.526 25.8007 129.662 26.671 131.999 26.671C133.943 26.671 135.75 26.0684 137.243 25.0416L136.479 24.0758Z" fill="white"/>
<path d="M139.766 12.3187L139.437 11.8168L135.844 14.0444L136.199 14.5734C136.222 14.6073 136.244 14.6415 136.266 14.6762H136.266C136.784 15.4876 137.057 16.4272 137.057 17.394C137.057 18.2801 136.827 19.1141 136.425 19.8389L137.428 20.5612C137.973 19.6301 138.287 18.5485 138.287 17.394C138.287 16.3555 138.032 15.3428 137.547 14.4353L139.046 13.5059C139.702 14.692 140.046 16.0246 140.046 17.394C140.046 19.7331 139.042 21.8415 137.444 23.3133L138.208 24.2799C140.091 22.5808 141.276 20.1231 141.276 17.394C141.276 15.5833 140.754 13.8279 139.766 12.3187Z" fill="white"/>
<path d="M125.338 35.5937C124.487 35.5937 123.795 34.9046 123.795 34.0572C123.795 33.2094 124.487 32.5205 125.338 32.5205C126.188 32.5205 126.88 33.2094 126.88 34.0572C126.88 34.9046 126.188 35.5937 125.338 35.5937ZM125.338 31.45C123.896 31.45 122.723 32.6194 122.723 34.0572C122.723 35.4944 123.896 36.6642 125.338 36.6642C126.78 36.6642 127.953 35.4944 127.953 34.0572C127.953 32.6194 126.78 31.45 125.338 31.45Z" fill="white"/>
<path d="M116.041 31.4846C115.669 31.4846 115.377 31.1942 115.377 30.8236C115.377 30.4531 115.669 30.1626 116.041 30.1626C116.413 30.1626 116.704 30.4531 116.704 30.8236C116.704 31.1942 116.413 31.4846 116.041 31.4846ZM116.589 36.5071H115.496V32.053H116.589V36.5071Z" fill="white"/>
<path d="M120.23 36.6767C118.781 36.6767 117.602 35.5014 117.602 34.0573C117.602 32.6123 118.781 31.4375 120.23 31.4375C120.93 31.4375 121.588 31.7083 122.084 32.2007L122.14 32.2565L121.441 33.1214L121.373 33.0441C121.083 32.719 120.666 32.5329 120.23 32.5329C119.387 32.5329 118.7 33.2166 118.7 34.0573C118.7 34.8975 119.387 35.5813 120.23 35.5813C120.672 35.5813 121.093 35.3906 121.384 35.057L121.452 34.9798L122.155 35.8419L122.099 35.8977C121.601 36.4001 120.938 36.6767 120.23 36.6767Z" fill="white"/>
<path d="M146.662 36.6767C145.213 36.6767 144.033 35.5014 144.033 34.0573C144.033 32.6123 145.213 31.4375 146.662 31.4375C147.362 31.4375 148.021 31.7083 148.517 32.2007L148.572 32.2565L147.873 33.1214L147.805 33.0441C147.514 32.719 147.098 32.5329 146.662 32.5329C145.819 32.5329 145.132 33.2166 145.132 34.0573C145.132 34.8975 145.819 35.5813 146.662 35.5813C147.104 35.5813 147.524 35.3906 147.815 35.057L147.884 34.9798L148.587 35.8419L148.531 35.8977C148.033 36.4001 147.37 36.6767 146.662 36.6767Z" fill="white"/>
<path d="M131.445 31.4333C130.003 31.4333 128.829 32.6032 128.829 34.0404C128.829 34.0412 128.831 36.4699 128.831 36.4699V36.545H128.906H129.909H129.984V36.4699V33.9594C129.984 33.1571 130.639 32.5039 131.445 32.5039C132.241 32.5039 132.89 33.1409 132.906 33.93L132.906 33.9594V36.4699V36.545H132.981H133.986H134.061V36.4699V34.0404C134.061 32.6032 132.888 31.4333 131.445 31.4333Z" fill="white"/>
<path d="M139.506 33.5001C139.597 32.8378 140.139 32.3982 140.792 32.3982C141.478 32.3982 141.979 32.8283 142.042 33.5001H139.506ZM140.782 31.4006C140.107 31.4006 139.488 31.6647 139.037 32.145C138.581 32.6305 138.33 33.307 138.33 34.0505C138.33 35.5883 139.404 36.663 140.942 36.663C142.335 36.663 142.94 35.7461 143.047 35.5621L143.08 35.5054L143.028 35.4652L142.353 34.9613L142.292 34.9152L142.248 34.9786C142.113 35.1736 141.717 35.6275 140.961 35.6275C140.142 35.6275 139.514 35.1171 139.464 34.3488H143.124H143.19L143.198 34.2828C143.207 34.1945 143.207 34.1072 143.207 34.0224C143.207 33.2441 142.986 32.588 142.568 32.1248C142.139 31.6511 141.522 31.4006 140.782 31.4006Z" fill="white"/>
<path d="M137.575 35.6719H137.574L137.521 35.6765H137.519C137.493 35.6786 137.403 35.6853 137.337 35.6853C136.867 35.6853 136.643 35.568 136.643 34.9025V32.3526H137.543H137.619V32.2772V31.5777V31.5024H137.543H136.646V30.5782V30.5033H136.571H135.568H135.492V30.5782V31.5024H134.904H134.829V31.5777V32.2772V32.353L134.905 32.3526L135.492 32.3493V34.7458C135.492 35.0927 135.518 35.5998 135.738 36.0003C135.981 36.4407 136.409 36.6639 137.011 36.6639C137.301 36.6639 137.466 36.6312 137.484 36.6275L137.521 36.6199L137.575 36.6082V35.6719Z" fill="white"/>
<path d="M117.287 52.0844H116.373V56.9012H117.287V52.0844Z" fill="#0090D1"/>
<path d="M118.222 56.5824L118.427 55.8385C118.602 55.9284 118.8 56.0076 119.022 56.076C119.244 56.1444 119.447 56.179 119.631 56.179C119.915 56.179 120.129 56.1342 120.276 56.0444C120.422 55.9545 120.496 55.8245 120.496 55.6543C120.496 55.5364 120.438 55.429 120.322 55.3325C120.206 55.2357 120.028 55.1208 119.787 54.9888L119.575 54.8613C119.258 54.6723 119.007 54.5096 118.82 54.3724C118.634 54.2354 118.473 54.0737 118.339 53.8873C118.204 53.7007 118.137 53.4919 118.137 53.2603C118.137 53.0148 118.203 52.7941 118.335 52.5982C118.467 52.4021 118.657 52.2486 118.905 52.1376C119.153 52.0266 119.45 51.9709 119.794 51.9709C120.2 51.9709 120.654 52.0913 121.154 52.3322L120.85 53.069C120.656 52.9744 120.48 52.9012 120.322 52.8491C120.164 52.7973 119.993 52.7713 119.809 52.7713C119.596 52.7713 119.422 52.8125 119.288 52.8954C119.153 52.978 119.086 53.0995 119.086 53.2601C119.086 53.3973 119.139 53.5118 119.245 53.6038C119.352 53.696 119.525 53.8126 119.766 53.9544L119.993 54.0819L120.198 54.2022C120.477 54.3631 120.699 54.5035 120.864 54.6239C121.029 54.7444 121.167 54.8907 121.278 55.063C121.389 55.2355 121.445 55.4373 121.445 55.6686C121.445 55.9284 121.375 56.1574 121.236 56.3558C121.097 56.5541 120.891 56.7101 120.62 56.8233C120.348 56.9365 120.023 56.9932 119.646 56.9932C119.447 56.9932 119.201 56.9495 118.905 56.8623C118.61 56.7751 118.382 56.6816 118.222 56.5824Z" fill="#0090D1"/>
<path d="M124.229 51.9709C124.715 51.9709 125.138 52.0807 125.497 52.3002C125.855 52.5198 126.128 52.8188 126.315 53.1964C126.501 53.5743 126.595 53.9966 126.595 54.4644C126.595 54.9557 126.495 55.3912 126.297 55.7712C126.099 56.1513 125.821 56.4489 125.465 56.6636C125.108 56.8787 124.696 56.9906 124.229 57.0004C123.742 57.0004 123.321 56.8904 122.964 56.671C122.607 56.4515 122.336 56.1539 122.149 55.7786C121.963 55.4031 121.87 54.9816 121.87 54.5141C121.87 54.0278 121.967 53.5932 122.164 53.2107C122.359 52.8281 122.637 52.5285 122.996 52.3112C123.355 52.0939 123.766 51.9805 124.229 51.9709ZM122.827 54.507C122.827 54.8423 122.883 55.1409 122.996 55.4031C123.11 55.6652 123.271 55.8682 123.481 56.0123C123.692 56.1563 123.938 56.2283 124.222 56.2283C124.486 56.2283 124.726 56.1634 124.941 56.0336C125.156 55.9037 125.326 55.7054 125.451 55.4385C125.576 55.1719 125.638 54.8472 125.638 54.4646C125.638 54.1341 125.582 53.8388 125.468 53.5789C125.355 53.3194 125.192 53.1161 124.979 52.97C124.767 52.8235 124.521 52.7501 124.243 52.7501C123.988 52.7501 123.753 52.8222 123.538 52.9664C123.323 53.1103 123.151 53.3157 123.021 53.5828C122.891 53.8494 122.827 54.1574 122.827 54.507Z" fill="#0090D1"/>
<path d="M132.17 56.4834H131.518V57.39H130.59V56.4834H128.628L128.507 55.7254L130.831 52.8564H131.518V55.7254H132.262L132.17 56.4834ZM129.499 55.7254H130.59V54.3302L129.499 55.7254Z" fill="#0090D1"/>
<path d="M133.7 55.4421H132.885L133.013 52.892H135.605L135.506 53.6357H133.792L133.749 54.4789C133.886 54.4081 134.061 54.3726 134.274 54.3726C134.613 54.3726 134.901 54.44 135.138 54.5746C135.374 54.7092 135.551 54.8886 135.669 55.1129C135.787 55.3373 135.848 55.5864 135.853 55.8602C135.853 56.1674 135.782 56.4412 135.641 56.6821C135.499 56.9228 135.297 57.1093 135.035 57.2416C134.773 57.3736 134.465 57.4398 134.111 57.4398C133.865 57.4398 133.607 57.3987 133.335 57.316C133.063 57.2333 132.812 57.1284 132.581 57.0007L133.034 56.3561C133.233 56.4648 133.414 56.5438 133.58 56.5933C133.745 56.6431 133.929 56.668 134.132 56.668C134.387 56.668 134.599 56.5946 134.766 56.4481C134.934 56.302 135.018 56.1059 135.018 55.8602C135.018 55.6336 134.952 55.4518 134.819 55.3146C134.687 55.1778 134.517 55.1094 134.31 55.1094C134.158 55.1094 134.029 55.1434 133.92 55.212C133.811 55.2804 133.737 55.357 133.7 55.4421Z" fill="#0090D1"/>
<path d="M136.207 54.8824C136.207 54.4857 136.292 54.1292 136.462 53.8127C136.632 53.4965 136.867 53.2487 137.167 53.0691C137.467 52.8896 137.806 52.7998 138.184 52.7998C138.557 52.7998 138.893 52.8883 139.193 53.0654C139.493 53.2424 139.727 53.4896 139.894 53.8058C140.062 54.1225 140.146 54.4766 140.146 54.8683C140.146 55.2744 140.061 55.6395 139.891 55.9629C139.721 56.2865 139.486 56.539 139.186 56.7209C138.886 56.9027 138.549 56.9936 138.176 56.9936C137.803 56.9936 137.467 56.9027 137.167 56.7209C136.867 56.539 136.632 56.2878 136.462 55.9666C136.292 55.6454 136.207 55.2839 136.207 54.8824ZM137.05 54.8614C137.05 55.1164 137.099 55.3465 137.196 55.5519C137.292 55.7573 137.427 55.9179 137.599 56.0337C137.771 56.1494 137.967 56.2072 138.184 56.2072C138.401 56.2072 138.596 56.1507 138.768 56.0373C138.94 55.9239 139.075 55.7681 139.172 55.5698C139.268 55.3716 139.317 55.1471 139.317 54.8971C139.317 54.6467 139.268 54.4214 139.168 54.2205C139.069 54.0197 138.933 53.8627 138.761 53.7491C138.588 53.6361 138.394 53.5792 138.176 53.5792C137.964 53.5792 137.771 53.6351 137.599 53.7459C137.427 53.8569 137.292 54.0093 137.195 54.2028C137.099 54.3963 137.05 54.6157 137.05 54.8614Z" fill="#0090D1"/>
<path d="M140.5 54.8824C140.5 54.4857 140.585 54.1292 140.755 53.8127C140.925 53.4965 141.16 53.2487 141.46 53.0691C141.76 52.8896 142.099 52.7998 142.476 52.7998C142.849 52.7998 143.186 52.8883 143.486 53.0654C143.786 53.2424 144.019 53.4896 144.187 53.8058C144.354 54.1225 144.438 54.4766 144.438 54.8683C144.438 55.2744 144.353 55.6395 144.183 55.9629C144.013 56.2865 143.778 56.539 143.478 56.7209C143.179 56.9027 142.842 56.9936 142.469 56.9936C142.096 56.9936 141.759 56.9027 141.46 56.7209C141.16 56.539 140.925 56.2878 140.755 55.9666C140.585 55.6454 140.5 55.2839 140.5 54.8824ZM141.343 54.8614C141.343 55.1164 141.392 55.3465 141.488 55.5519C141.585 55.7573 141.72 55.9179 141.892 56.0337C142.064 56.1494 142.259 56.2072 142.476 56.2072C142.693 56.2072 142.888 56.1507 143.061 56.0373C143.233 55.9239 143.368 55.7681 143.464 55.5698C143.561 55.3716 143.61 55.1471 143.61 54.8971C143.61 54.6467 143.56 54.4214 143.461 54.2205C143.362 54.0197 143.226 53.8627 143.054 53.7491C142.881 53.6361 142.686 53.5792 142.469 53.5792C142.256 53.5792 142.064 53.6351 141.892 53.7459C141.719 53.8569 141.585 54.0093 141.488 54.2028C141.391 54.3963 141.343 54.6157 141.343 54.8614Z" fill="#0090D1"/>
<path d="M145.841 56.9013V53.9121L145.033 54.2237L144.686 53.5365L146.145 52.892H146.762V56.9013H145.841Z" fill="#0090D1"/>
<path d="M113.291 78.7142C113.291 77.9751 113.454 77.4067 113.779 77.0096C114.104 76.6122 114.509 76.4137 114.994 76.4137C115.308 76.4137 115.593 76.5024 115.852 76.6797C116.11 76.857 116.315 77.115 116.466 77.453C116.616 77.7911 116.692 78.1939 116.692 78.6608C116.692 79.3038 116.546 79.8274 116.254 80.2315C115.933 80.6769 115.512 80.8999 114.991 80.8999C114.467 80.8999 114.045 80.6709 113.726 80.2137C113.436 79.7997 113.291 79.2999 113.291 78.7142ZM113.776 78.7218C113.776 79.2566 113.893 79.6713 114.129 79.9664C114.365 80.2614 114.651 80.409 114.988 80.409C115.333 80.409 115.623 80.2601 115.856 79.9622C116.09 79.6642 116.206 79.2261 116.206 78.648C116.206 78.2751 116.146 77.9418 116.026 77.6476C115.934 77.4227 115.794 77.2427 115.608 77.1074C115.421 76.9723 115.218 76.9046 114.997 76.9046C114.642 76.9046 114.35 77.0526 114.12 77.3487C113.891 77.6444 113.776 78.1021 113.776 78.7218Z" fill="#111211"/>
<path d="M117.129 79.4299L117.573 79.3825C117.597 79.6213 117.65 79.807 117.734 79.9399C117.818 80.073 117.938 80.1799 118.093 80.2606C118.249 80.3416 118.425 80.3823 118.62 80.3823C118.9 80.3823 119.117 80.3139 119.272 80.1771C119.427 80.0405 119.504 79.8628 119.504 79.6444C119.504 79.5165 119.476 79.4048 119.42 79.3096C119.364 79.2141 119.279 79.1356 119.165 79.075C119.052 79.0139 118.807 78.9274 118.431 78.8161C118.095 78.7168 117.857 78.6168 117.715 78.5161C117.573 78.4155 117.462 78.2878 117.384 78.133C117.305 77.9781 117.265 77.8034 117.265 77.6079C117.265 77.2571 117.379 76.9703 117.606 76.7472C117.832 76.5246 118.138 76.413 118.522 76.413C118.786 76.413 119.018 76.4653 119.216 76.5701C119.414 76.6742 119.568 76.8244 119.677 77.0194C119.786 77.2144 119.845 77.4443 119.853 77.7086L119.401 77.7499C119.377 77.4677 119.293 77.2588 119.148 77.1231C119.003 76.987 118.799 76.9192 118.537 76.9192C118.271 76.9192 118.068 76.9785 117.928 77.098C117.788 77.2173 117.718 77.3716 117.718 77.5608C117.718 77.7363 117.769 77.872 117.872 77.969C117.974 78.0655 118.205 78.1631 118.564 78.262C118.914 78.3592 119.16 78.4436 119.302 78.5146C119.519 78.6256 119.683 78.7713 119.794 78.9514C119.904 79.1317 119.96 79.3468 119.96 79.5968C119.96 79.8449 119.901 80.0708 119.785 80.2749C119.669 80.4786 119.51 80.6336 119.31 80.7401C119.11 80.8463 118.869 80.8996 118.587 80.8996C118.148 80.8996 117.797 80.7673 117.536 80.5033C117.275 80.2394 117.139 79.8814 117.129 79.4299Z" fill="#111211"/>
<path d="M121.713 78.9894H120.374V79.5246H121.713V78.9894Z" fill="#111211"/>
<path d="M124.777 79.3058L125.25 79.4508C125.146 79.9375 124.963 80.3012 124.701 80.5403C124.44 80.7799 124.122 80.8998 123.748 80.8998C123.419 80.8998 123.137 80.8193 122.903 80.6587C122.67 80.4977 122.479 80.2399 122.33 79.8847C122.181 79.5296 122.107 79.1105 122.107 78.627C122.107 78.1495 122.181 77.7456 122.33 77.4151C122.479 77.0846 122.681 76.8351 122.935 76.6665C123.19 76.4979 123.474 76.4135 123.788 76.4135C124.131 76.4135 124.426 76.5199 124.673 76.7336C124.92 76.9472 125.093 77.2604 125.191 77.6734L124.73 77.8065C124.572 77.2052 124.255 76.9043 123.779 76.9043C123.542 76.9043 123.337 76.9652 123.163 77.0864C122.989 77.208 122.851 77.397 122.747 77.6532C122.643 77.9095 122.591 78.2344 122.591 78.627C122.591 79.2209 122.696 79.6663 122.905 79.9635C123.114 80.2603 123.392 80.409 123.739 80.409C123.995 80.409 124.217 80.3176 124.403 80.1354C124.589 79.9529 124.714 79.6765 124.777 79.3058Z" fill="#111211"/>
<path d="M125.847 80.826V76.4902H128.417V77.0021H126.318V78.3272H128.284V78.8384H126.318V80.3141H128.5V80.826H125.847Z" fill="#111211"/>
<path d="M129.148 80.8258V76.4907H130.724C131.054 76.4907 131.297 76.5312 131.453 76.6119C131.61 76.6927 131.739 76.8271 131.839 77.0154C131.94 77.2035 131.99 77.4216 131.99 77.6697C131.99 77.9969 131.905 78.2619 131.734 78.4647C131.563 78.6677 131.315 78.7967 130.99 78.8519C131.122 78.9313 131.223 79.0116 131.292 79.093C131.432 79.2588 131.555 79.443 131.661 79.646L132.282 80.8258H131.691L131.217 79.9246C131.033 79.5718 130.895 79.3343 130.801 79.2118C130.708 79.0895 130.617 79.0071 130.529 78.9644C130.442 78.922 130.319 78.9008 130.162 78.9008H129.618V80.8258H129.148ZM129.618 78.4038H130.63C130.851 78.4038 131.018 78.3772 131.132 78.324C131.247 78.2707 131.337 78.187 131.404 78.0727C131.472 77.9584 131.505 77.8253 131.505 77.6734C131.505 77.4543 131.441 77.2825 131.313 77.1574C131.185 77.0323 130.994 76.9695 130.742 76.9695H129.618V78.4038Z" fill="#111211"/>
<path d="M133.93 79.6904L134.388 79.6432C134.424 79.9192 134.504 80.1246 134.629 80.2596C134.754 80.3947 134.9 80.4624 135.066 80.4624C135.273 80.4624 135.451 80.3672 135.601 80.1767C135.751 79.9863 135.826 79.7261 135.826 79.3965C135.826 79.0863 135.753 78.8461 135.608 78.6753C135.463 78.5045 135.281 78.419 135.063 78.419C134.931 78.419 134.807 78.456 134.691 78.5301C134.576 78.6045 134.485 78.7075 134.418 78.8402L134.007 78.7751L134.353 76.5472H136.118V77.0559H134.7L134.509 78.2223C134.72 78.04 134.944 77.9489 135.181 77.9489C135.479 77.9489 135.737 78.0758 135.957 78.3294C136.177 78.5829 136.287 78.9249 136.287 79.3551C136.287 79.7794 136.177 80.143 135.957 80.446C135.737 80.749 135.442 80.9003 135.071 80.9003C134.764 80.9003 134.504 80.7934 134.292 80.5798C134.08 80.3653 133.959 80.069 133.93 79.6904Z" fill="#111211"/>
<path d="M136.757 79.8235L137.177 79.7761C137.244 80.2334 137.441 80.4622 137.768 80.4622C137.914 80.4622 138.047 80.4124 138.166 80.3129C138.285 80.2133 138.386 80.0363 138.469 79.7819C138.552 79.5276 138.593 79.2309 138.593 78.8919V78.7855C138.503 78.961 138.38 79.1002 138.227 79.2025C138.073 79.3051 137.916 79.3564 137.756 79.3564C137.467 79.3564 137.217 79.2298 137.007 78.9764C136.797 78.7231 136.692 78.3766 136.692 77.9368C136.692 77.4833 136.801 77.1262 137.018 76.865C137.236 76.6037 137.501 76.4728 137.813 76.4728C138.034 76.4728 138.24 76.5457 138.431 76.692C138.622 76.8379 138.769 77.0526 138.874 77.3366C138.979 77.6208 139.031 78.0296 139.031 78.5638C139.031 79.1592 138.975 79.6216 138.863 79.9508C138.75 80.28 138.598 80.5207 138.406 80.6724C138.213 80.8243 137.998 80.9001 137.76 80.9001C137.489 80.9001 137.264 80.8081 137.082 80.6239C136.901 80.4391 136.793 80.1724 136.757 79.8235ZM138.546 77.9086C138.546 77.5985 138.477 77.3546 138.339 77.1769C138.2 76.9994 138.042 76.9104 137.862 76.9104C137.674 76.9104 137.506 77.0052 137.359 77.1946C137.212 77.384 137.138 77.637 137.138 77.9528C137.138 78.2372 137.209 78.4638 137.349 78.6329C137.489 78.8017 137.657 78.8859 137.853 78.8859C138.046 78.8859 138.21 78.801 138.345 78.6313C138.479 78.4614 138.546 78.2205 138.546 77.9086Z" fill="#111211"/>
<path d="M139.484 77.0582V76.5465H141.782V76.9606C141.439 77.4062 141.137 77.9863 140.876 78.701C140.616 79.4157 140.466 80.1241 140.427 80.8255H139.98C139.986 80.463 140.044 80.0399 140.153 79.5572C140.262 79.0741 140.412 78.6137 140.603 78.1761C140.794 77.7384 140.999 77.3657 141.22 77.0582H139.484Z" fill="#111211"/>
<path d="M142.216 79.6904L142.675 79.6432C142.71 79.9192 142.791 80.1246 142.916 80.2596C143.041 80.3947 143.186 80.4624 143.352 80.4624C143.559 80.4624 143.737 80.3672 143.887 80.1767C144.037 79.9863 144.112 79.7261 144.112 79.3965C144.112 79.0863 144.039 78.8461 143.895 78.6753C143.75 78.5045 143.568 78.419 143.349 78.419C143.217 78.419 143.093 78.456 142.978 78.5301C142.862 78.6045 142.771 78.7075 142.704 78.8402L142.293 78.7751L142.639 76.5472H144.405V77.0559H142.986L142.795 78.2223C143.007 78.04 143.231 77.9489 143.467 77.9489C143.765 77.9489 144.024 78.0758 144.243 78.3294C144.463 78.5829 144.573 78.9249 144.573 79.3551C144.573 79.7794 144.463 80.143 144.243 80.446C144.024 80.749 143.728 80.9003 143.358 80.9003C143.05 80.9003 142.791 80.7934 142.578 80.5798C142.367 80.3653 142.246 80.069 142.216 79.6904Z" fill="#111211"/>
<path d="M144.978 79.6904L145.436 79.6432C145.472 79.9192 145.552 80.1246 145.677 80.2596C145.802 80.3947 145.948 80.4624 146.114 80.4624C146.321 80.4624 146.499 80.3672 146.649 80.1767C146.799 79.9863 146.874 79.7261 146.874 79.3965C146.874 79.0863 146.801 78.8461 146.657 78.6753C146.512 78.5045 146.33 78.419 146.111 78.419C145.979 78.419 145.855 78.456 145.74 78.5301C145.624 78.6045 145.533 78.7075 145.466 78.8402L145.055 78.7751L145.401 76.5472H147.167V77.0559H145.748L145.558 78.2223C145.769 78.04 145.993 77.9489 146.229 77.9489C146.527 77.9489 146.786 78.0758 147.005 78.3294C147.226 78.5829 147.335 78.9249 147.335 79.3551C147.335 79.7794 147.225 80.143 147.005 80.446C146.786 80.749 146.49 80.9003 146.12 80.9003C145.812 80.9003 145.552 80.7934 145.341 80.5798C145.128 80.3653 145.008 80.069 144.978 79.6904Z" fill="#111211"/>
<path d="M147.74 79.6904L148.199 79.6432C148.234 79.9192 148.314 80.1246 148.44 80.2596C148.565 80.3947 148.71 80.4624 148.876 80.4624C149.083 80.4624 149.261 80.3672 149.411 80.1767C149.561 79.9863 149.636 79.7261 149.636 79.3965C149.636 79.0863 149.564 78.8461 149.419 78.6753C149.274 78.5045 149.092 78.419 148.873 78.419C148.741 78.419 148.617 78.456 148.502 78.5301C148.387 78.6045 148.295 78.7075 148.228 78.8402L147.817 78.7751L148.163 76.5472H149.929V77.0559H148.51L148.32 78.2223C148.531 78.04 148.755 77.9489 148.991 77.9489C149.289 77.9489 149.548 78.0758 149.768 78.3294C149.988 78.5829 150.098 78.9249 150.098 79.3551C150.098 79.7794 149.988 80.143 149.768 80.446C149.548 80.749 149.253 80.9003 148.882 80.9003C148.574 80.9003 148.315 80.7934 148.103 80.5798C147.891 80.3653 147.77 80.069 147.74 79.6904Z" fill="#111211"/>
<path d="M240 33.4949C239.953 51.2825 225.494 65.6648 207.706 65.6171C189.918 65.5693 175.536 51.1104 175.584 33.3224C175.632 15.5342 190.09 1.15318 207.878 1.2008C225.666 1.24863 240.048 15.7069 240 33.4949Z" fill="#004494"/>
<path d="M190.069 28.962H187.981V38.9218H190.069V28.962Z" fill="white"/>
<path d="M201.332 36.8993C202.131 36.1244 202.536 35.1234 202.536 33.9169C202.536 33.2038 202.399 32.5207 202.129 31.8867C201.859 31.2532 201.487 30.7041 201.024 30.2547C200.561 29.8054 200.003 29.4466 199.366 29.1883C198.728 28.9295 198.044 28.7981 197.33 28.7981C196.369 28.7981 195.48 29.0269 194.687 29.4769C193.894 29.9279 193.264 30.5495 192.814 31.3255C192.365 32.101 192.137 32.9644 192.137 33.8918C192.137 34.5968 192.274 35.2719 192.545 35.8969C192.815 36.5222 193.185 37.062 193.645 37.5012C194.102 37.9393 194.649 38.2893 195.27 38.5418C195.891 38.7944 196.55 38.9219 197.23 38.9219H203.147V36.8993H201.332ZM200.442 33.9044C200.442 34.4881 200.303 35.0229 200.03 35.4928C199.757 35.9616 199.381 36.3294 198.912 36.5863C198.441 36.8439 197.913 36.9752 197.343 36.9752C196.469 36.9752 195.721 36.6837 195.12 36.1088C194.514 35.5281 194.218 34.811 194.218 33.9169C194.218 33.3358 194.355 32.796 194.625 32.3127C194.896 31.8307 195.273 31.445 195.747 31.166C196.221 30.8863 196.754 30.7456 197.33 30.7456C197.903 30.7456 198.433 30.8837 198.908 31.1571C199.383 31.4305 199.761 31.8131 200.032 32.2945C200.304 32.7778 200.442 33.3191 200.442 33.9044Z" fill="white"/>
<path d="M211.994 28.9622V35.3515L207.367 28.9622H204.933V38.9219H207.02V32.0588L211.99 38.9219H214.069V28.9622H211.994Z" fill="white"/>
<path d="M223.232 30.991V28.962H216.339V38.9224H223.232V36.8989H218.426V34.7449H222.304V32.7227H218.426V30.991H223.232Z" fill="white"/>
<path d="M225.191 28.9622V30.9913H228.273V38.9219H230.361V30.9913H233.424V28.9622H225.191Z" fill="white"/>
<path d="M194.846 20.4539C194.859 20.0335 195.211 19.7037 195.632 19.7173C196.052 19.7305 196.382 20.0825 196.368 20.5034C196.355 20.924 196.002 21.2538 195.582 21.24C195.162 21.2268 194.832 20.874 194.846 20.4539Z" fill="white"/>
<path d="M197.026 18.7278C197.041 18.2784 197.417 17.9261 197.866 17.9404C198.316 17.9549 198.669 18.3313 198.653 18.7806C198.639 19.2299 198.263 19.5823 197.813 19.568C197.364 19.5535 197.012 19.1771 197.026 18.7278Z" fill="white"/>
<path d="M202.053 16.4192C202.069 15.912 202.494 15.5138 203.002 15.53C203.509 15.5469 203.907 15.9718 203.89 16.4789C203.874 16.986 203.449 17.3843 202.942 17.368C202.434 17.3518 202.037 16.9263 202.053 16.4192Z" fill="white"/>
<path d="M207.541 15.8168C207.56 15.2513 208.033 14.8082 208.599 14.8266C209.164 14.8448 209.607 15.3179 209.589 15.8835C209.571 16.449 209.097 16.8925 208.532 16.8737C207.966 16.8557 207.522 16.3824 207.541 15.8168Z" fill="white"/>
<path d="M210.287 16.1734C210.307 15.579 210.805 15.1126 211.399 15.1321C211.993 15.1515 212.459 15.6487 212.44 16.243C212.421 16.8383 211.923 17.3038 211.329 17.285C210.734 17.2657 210.268 16.7677 210.287 16.1734Z" fill="white"/>
<path d="M212.943 16.9636C212.963 16.3403 213.485 15.8513 214.109 15.8714C214.732 15.8916 215.221 16.4138 215.2 17.0366C215.18 17.6606 214.659 18.1493 214.035 18.1294C213.412 18.1092 212.923 17.587 212.943 16.9636Z" fill="white"/>
<path d="M215.44 18.1707C215.462 17.5183 216.008 17.0062 216.66 17.0276C217.312 17.0491 217.824 17.5951 217.803 18.2479C217.781 18.9003 217.235 19.4117 216.583 19.3903C215.93 19.3695 215.419 18.823 215.44 18.1707Z" fill="white"/>
<path d="M187.976 22.8606C187.988 22.498 188.292 22.214 188.654 22.2259C189.016 22.2379 189.301 22.5407 189.289 22.9032C189.277 23.2659 188.974 23.5499 188.611 23.538C188.249 23.5265 187.965 23.2231 187.976 22.8606Z" fill="white"/>
<path d="M189.87 20.0169C189.882 19.6254 190.21 19.3183 190.602 19.3308C190.993 19.344 191.3 19.6713 191.287 20.0628C191.274 20.4544 190.947 20.7615 190.556 20.7489C190.164 20.7364 189.857 20.4085 189.87 20.0169Z" fill="white"/>
<path d="M194.855 15.4048C194.87 14.9554 195.246 14.6031 195.695 14.6174C196.145 14.6319 196.498 15.0083 196.483 15.4576C196.469 15.9076 196.092 16.2599 195.643 16.245C195.193 16.2305 194.84 15.8541 194.855 15.4048Z" fill="white"/>
<path d="M197.824 13.7484C197.839 13.2696 198.24 12.8952 198.718 12.9101C199.197 12.9259 199.572 13.3267 199.556 13.8049C199.541 14.2832 199.14 14.6583 198.662 14.6431C198.183 14.6276 197.808 14.2271 197.824 13.7484Z" fill="white"/>
<path d="M201.015 12.5869C201.031 12.0798 201.456 11.6815 201.964 11.6977C202.472 11.7146 202.869 12.1395 202.852 12.6466C202.836 13.1537 202.412 13.552 201.904 13.5358C201.396 13.5193 200.999 13.0942 201.015 12.5869Z" fill="white"/>
<path d="M204.348 11.951C204.365 11.4144 204.814 10.9939 205.351 11.011C205.887 11.0285 206.308 11.4779 206.291 12.0144C206.273 12.5505 205.825 12.9715 205.288 12.954C204.752 12.9362 204.33 12.4876 204.348 11.951Z" fill="white"/>
<path d="M207.738 11.8526C207.757 11.287 208.23 10.844 208.796 10.8624C209.361 10.8806 209.805 11.3537 209.786 11.9193C209.768 12.4848 209.294 12.9283 208.728 12.9095C208.164 12.8915 207.719 12.4184 207.738 11.8526Z" fill="white"/>
<path d="M211.003 12.2681C211.022 11.6737 211.52 11.2073 212.114 11.2268C212.709 11.2465 213.175 11.7434 213.156 12.3378C213.137 12.933 212.639 13.3986 212.044 13.3797C211.45 13.3602 210.983 12.8624 211.003 12.2681Z" fill="white"/>
<path d="M214.362 13.238C214.382 12.6147 214.903 12.1257 215.527 12.1459C216.151 12.166 216.64 12.6883 216.619 13.3116C216.599 13.935 216.077 14.4237 215.454 14.4038C214.831 14.3836 214.341 13.8614 214.362 13.238Z" fill="white"/>
<path d="M217.416 14.727C217.437 14.0747 217.983 13.5626 218.635 13.584C219.288 13.6055 219.8 14.1515 219.778 14.8043C219.757 15.4567 219.211 15.9681 218.559 15.9467C217.906 15.9259 217.394 15.3798 217.416 14.727Z" fill="white"/>
<path d="M220.205 16.6714C220.227 15.9896 220.798 15.4554 221.479 15.4775C222.161 15.4995 222.696 16.0701 222.673 16.7519C222.651 17.433 222.08 17.9676 221.399 17.9451C220.717 17.9233 220.183 17.3525 220.205 16.6714Z" fill="white"/>
<path d="M222.657 19.0345C222.68 18.3243 223.274 17.767 223.985 17.7904C224.695 17.8129 225.252 18.4081 225.23 19.118C225.207 19.8288 224.612 20.3862 223.901 20.3628C223.191 20.3396 222.634 19.7453 222.657 19.0345Z" fill="white"/>
<path d="M182.851 44.375C182.867 43.8824 183.28 43.4956 183.773 43.5116C184.266 43.5274 184.653 43.9401 184.637 44.4334C184.621 44.9267 184.208 45.3132 183.715 45.2968C183.222 45.2803 182.835 44.8682 182.851 44.375Z" fill="white"/>
<path d="M181.389 40.639C181.406 40.1167 181.843 39.7077 182.365 39.7248C182.887 39.7416 183.296 40.1784 183.279 40.7007C183.262 41.2221 182.825 41.6312 182.303 41.6149C181.782 41.5978 181.372 41.1613 181.389 40.639Z" fill="white"/>
<path d="M180.579 36.5883C180.596 36.0373 181.058 35.6055 181.609 35.6232C182.16 35.6414 182.592 36.102 182.574 36.653C182.556 37.2041 182.095 37.6365 181.544 37.6188C180.993 37.6006 180.561 37.1394 180.579 36.5883Z" fill="white"/>
<path d="M180.411 32.4698C180.43 31.8897 180.915 31.4348 181.496 31.4538C182.076 31.4727 182.53 31.9583 182.511 32.5378C182.492 33.1183 182.007 33.5732 181.427 33.5537C180.847 33.5349 180.392 33.0499 180.411 32.4698Z" fill="white"/>
<path d="M180.881 28.3828C180.901 27.774 181.41 27.2963 182.02 27.3158C182.629 27.3359 183.106 27.8456 183.087 28.4545C183.066 29.0633 182.557 29.5416 181.948 29.5215C181.339 29.5014 180.861 28.9917 180.881 28.3828Z" fill="white"/>
<path d="M181.984 24.4271C182.005 23.7892 182.539 23.2891 183.176 23.3098C183.814 23.3306 184.314 23.8641 184.294 24.5024C184.274 25.1403 183.74 25.6405 183.101 25.6197C182.463 25.5991 181.963 25.0649 181.984 24.4271Z" fill="white"/>
<path d="M183.695 20.7026C183.717 20.036 184.275 19.5124 184.941 19.5345C185.609 19.5559 186.132 20.1145 186.11 20.7812C186.088 21.4478 185.53 21.9714 184.863 21.9493C184.196 21.9279 183.673 21.3695 183.695 20.7026Z" fill="white"/>
<path d="M185.968 17.301C185.99 16.6053 186.573 16.0593 187.269 16.082C187.965 16.1045 188.511 16.6872 188.488 17.3826C188.465 18.0789 187.883 18.6249 187.187 18.6018C186.491 18.5795 185.945 17.9966 185.968 17.301Z" fill="white"/>
<path d="M188.795 14.305C188.817 13.6094 189.4 13.0633 190.096 13.086C190.792 13.1085 191.338 13.6912 191.316 14.3866C191.292 15.0829 190.71 15.629 190.014 15.6058C189.318 15.5837 188.772 15.0006 188.795 14.305Z" fill="white"/>
<path d="M192.001 11.783C192.025 11.0579 192.631 10.4898 193.356 10.5131C194.082 10.537 194.65 11.1441 194.626 11.8685C194.602 12.5936 193.996 13.1624 193.271 13.1384C192.546 13.115 191.977 12.5079 192.001 11.783Z" fill="white"/>
<path d="M195.558 9.79372C195.583 9.03964 196.214 8.44832 196.968 8.47278C197.722 8.49745 198.313 9.12838 198.289 9.88224C198.264 10.6363 197.633 11.2276 196.879 11.2032C196.125 11.1787 195.534 10.5476 195.558 9.79372Z" fill="white"/>
<path d="M199.388 8.40673C199.414 7.62386 200.069 7.00982 200.852 7.03492C201.635 7.06068 202.249 7.71606 202.223 8.49915C202.198 9.28201 201.543 9.89606 200.76 9.87095C199.976 9.84498 199.362 9.19003 199.388 8.40673Z" fill="white"/>
<path d="M203.386 7.64278C203.413 6.83091 204.092 6.19436 204.905 6.22012C205.716 6.24717 206.353 6.92636 206.326 7.73823C206.3 8.5501 205.62 9.18731 204.808 9.1609C203.996 9.13449 203.36 8.45487 203.386 7.64278Z" fill="white"/>
<path d="M207.476 7.52353C207.504 6.68287 208.207 6.02294 209.048 6.05065C209.889 6.0777 210.549 6.78135 210.521 7.62287C210.494 8.46353 209.79 9.12346 208.949 9.09576C208.109 9.06848 207.449 8.3644 207.476 7.52353Z" fill="white"/>
<path d="M211.491 8.04035C211.519 7.17068 212.247 6.48825 213.117 6.5166C213.987 6.54474 214.669 7.27306 214.641 8.14272C214.612 9.01238 213.885 9.69547 213.014 9.66668C212.145 9.63833 211.462 8.91066 211.491 8.04035Z" fill="white"/>
<path d="M192.182 17.5116C192.196 17.0913 192.548 16.7614 192.968 16.7751C193.388 16.7883 193.718 17.1402 193.705 17.5612C193.691 17.9817 193.339 18.3116 192.918 18.2977C192.498 18.2845 192.168 17.9319 192.182 17.5116Z" fill="white"/>
<path d="M204.803 15.8816C204.821 15.345 205.269 14.924 205.806 14.9416C206.342 14.9591 206.763 15.4084 206.746 15.945C206.728 16.4811 206.279 16.9021 205.743 16.8846C205.206 16.8668 204.786 16.4181 204.803 15.8816Z" fill="white"/>
<path d="M199.454 17.3428C199.469 16.864 199.87 16.4889 200.348 16.5045C200.827 16.5203 201.202 16.9205 201.186 17.3993C201.171 17.8776 200.77 18.2527 200.292 18.2369C199.813 18.2222 199.438 17.8215 199.454 17.3428Z" fill="white"/>
<path d="M195.532 45.6495C195.532 45.4066 195.578 45.1752 195.671 44.9551C195.763 44.735 195.888 44.5447 196.047 44.385C196.206 44.2248 196.398 44.0974 196.621 44.0026C196.845 43.9078 197.083 43.8604 197.335 43.8604C197.587 43.8604 197.823 43.9082 198.044 44.0034C198.265 44.0991 198.459 44.2328 198.625 44.4043L198.243 44.8346C198.006 44.5584 197.703 44.4203 197.335 44.4203C197.114 44.4203 196.913 44.4763 196.729 44.5887C196.546 44.701 196.402 44.8512 196.298 45.0404C196.194 45.2293 196.142 45.4337 196.142 45.6538C196.142 45.8754 196.195 46.0795 196.302 46.2661C196.409 46.4527 196.555 46.6003 196.738 46.7089C196.922 46.8172 197.122 46.8715 197.339 46.8715C197.498 46.8715 197.657 46.8364 197.814 46.7659C197.971 46.6953 198.105 46.6031 198.215 46.4892L198.575 46.9174C198.408 47.0782 198.219 47.2041 198.009 47.2953C197.799 47.3862 197.576 47.4318 197.339 47.4318C197.013 47.4318 196.711 47.3541 196.435 47.1985C196.159 47.0427 195.939 46.8282 195.776 46.5542C195.614 46.2804 195.532 45.9787 195.532 45.6495Z" fill="white"/>
<path d="M199.262 47.3702V43.9194H201.447V44.5069H199.872V45.2763H201.113V45.8635H199.872V46.7832H201.447V47.3702H199.262Z" fill="white"/>
<path d="M202.226 47.3702V43.9194H203.623C203.968 43.9194 204.235 44.011 204.424 44.1937C204.614 44.3763 204.709 44.622 204.709 44.9313C204.709 45.1928 204.64 45.4096 204.502 45.5819C204.364 45.7544 204.167 45.8626 203.912 45.9068L204.77 47.3704H204.085L203.25 45.9386H202.836V47.3704L202.226 47.3702ZM202.836 45.3512H203.632C203.776 45.3512 203.89 45.3146 203.974 45.2417C204.057 45.1685 204.099 45.0666 204.099 44.9358C204.099 44.8036 204.057 44.6988 203.972 44.622C203.888 44.5454 203.775 44.5069 203.632 44.5069H202.836V45.3512Z" fill="white"/>
<path d="M205.179 44.5069V43.9194H208.004V44.5069H206.9V47.3699H206.29V44.5069H205.179Z" fill="white"/>
<path d="M209.294 43.9194H208.684V47.3702H209.294V43.9194Z" fill="white"/>
<path d="M210.213 47.3702V43.9194H212.353V44.5069H210.823V45.2763H212.016V45.8635H210.823V47.3702H210.213Z" fill="white"/>
<path d="M213.624 43.9194H213.015V47.3702H213.624V43.9194Z" fill="white"/>
<path d="M214.546 47.3702V43.9194H216.731V44.5069H215.156V45.2763H216.396V45.8635H215.156V46.7832H216.731V47.3702H214.546Z" fill="white"/>
<path d="M217.522 47.3702V43.9194H218.501C218.867 43.9194 219.189 43.9876 219.468 44.124C219.747 44.2605 219.965 44.4595 220.121 44.7207C220.278 44.9822 220.356 45.2897 220.356 45.6438C220.356 45.9977 220.278 46.3057 220.121 46.5676C219.965 46.8295 219.747 47.0288 219.468 47.1654C219.189 47.302 218.867 47.3704 218.501 47.3704L217.522 47.3702ZM218.132 46.7832H218.488C218.665 46.7832 218.827 46.7626 218.975 46.7217C219.122 46.6808 219.254 46.6163 219.372 46.5291C219.489 46.4416 219.581 46.3228 219.647 46.1726C219.713 46.0222 219.746 45.846 219.746 45.644C219.746 45.4421 219.713 45.2657 219.647 45.1155C219.581 44.9653 219.489 44.8467 219.372 44.7599C219.254 44.6735 219.122 44.6097 218.975 44.5685C218.827 44.5276 218.665 44.5071 218.488 44.5071H218.132V46.7832Z" fill="white"/>
<path d="M189.893 52.9638V49.5131H190.681L191.632 51.0336L192.597 49.5131H193.385V52.9638H192.775V50.3485L191.921 51.6822H191.343L190.503 50.3485V52.9638H189.893Z" fill="white"/>
<path d="M193.933 52.9638L195.312 49.5131H195.934L197.309 52.9638H196.646L196.362 52.2307H194.875L194.596 52.9638H193.933ZM195.094 51.6437H196.143L195.62 50.2734L195.094 51.6437Z" fill="white"/>
<path d="M197.852 52.9638V49.5131H198.621L200.397 51.9669V49.5131H201.007V52.9638H200.36L198.462 50.3394V52.9638H197.852Z" fill="white"/>
<path d="M201.561 52.9638L202.94 49.5131H203.561L204.936 52.9638H204.274L203.989 52.2307H202.503L202.223 52.9638H201.561ZM202.722 51.6437H203.771L203.247 50.2734L202.722 51.6437Z" fill="white"/>
<path d="M205.135 51.2474C205.135 51.0033 205.181 50.771 205.274 50.5509C205.366 50.3308 205.491 50.1405 205.65 49.9795C205.809 49.8185 206.001 49.6908 206.224 49.5962C206.448 49.5014 206.686 49.454 206.938 49.454C207.191 49.454 207.43 49.5009 207.653 49.5949C207.876 49.689 208.071 49.8202 208.238 49.9886L207.871 50.4096C207.753 50.273 207.613 50.1728 207.452 50.1091C207.291 50.0453 207.128 50.0137 206.961 50.0137C206.73 50.0137 206.522 50.0704 206.335 50.1832C206.148 50.2962 206.003 50.4466 205.9 50.6338C205.797 50.8212 205.745 51.0258 205.745 51.2472C205.745 51.5887 205.862 51.877 206.096 52.1121C206.329 52.3474 206.622 52.4651 206.974 52.4651C207.24 52.4651 207.457 52.3907 207.626 52.242C207.796 52.0933 207.894 51.8664 207.921 51.5613H206.835V50.974H208.526V51.3701C208.526 51.5946 208.494 51.8056 208.428 52.003C208.362 52.2002 208.265 52.3755 208.138 52.5287C208.012 52.682 207.848 52.8032 207.648 52.8919C207.448 52.9807 207.221 53.025 206.97 53.025C206.714 53.025 206.474 52.9792 206.247 52.8872C206.02 52.7954 205.825 52.6707 205.664 52.5129C205.501 52.3552 205.373 52.166 205.278 51.9463C205.183 51.7262 205.135 51.4933 205.135 51.2474Z" fill="white"/>
<path d="M209.355 52.9638V49.5131H211.54V50.1007H209.965V50.8697H211.205V51.4569H209.965V52.3766H211.54V52.9638H209.355Z" fill="white"/>
<path d="M212.318 52.9638V49.5131H213.105L214.057 51.0336L215.022 49.5131H215.809V52.9638H215.199V50.3485L214.346 51.6822H213.768L212.928 50.3485V52.9638H212.318Z" fill="white"/>
<path d="M216.726 52.9638V49.5131H218.911V50.1007H217.336V50.8697H218.577V51.4569H217.336V52.3766H218.911V52.9638H216.726Z" fill="white"/>
<path d="M219.694 52.9638V49.5131H220.463L222.239 51.9669V49.5131H222.849V52.9638H222.202L220.304 50.3394V52.9638H219.694Z" fill="white"/>
<path d="M223.526 50.1005V49.5131H226.351V50.1005H225.247V52.9638H224.637V50.1005H223.526Z" fill="white"/>
<path d="M198.48 58.007L198.862 57.6109C198.92 57.678 198.972 57.733 199.019 57.7774C199.065 57.8213 199.122 57.8674 199.19 57.915C199.258 57.9629 199.331 57.999 199.411 58.0231C199.491 58.0475 199.577 58.0596 199.668 58.0596C199.848 58.0596 199.984 58.0137 200.075 57.9218C200.165 57.83 200.211 57.7235 200.211 57.6019C200.211 57.5307 200.193 57.4661 200.157 57.4084C200.122 57.3506 200.074 57.3017 200.014 57.2614C199.955 57.2211 199.886 57.1837 199.808 57.1486C199.73 57.1138 199.648 57.0794 199.562 57.045C199.477 57.011 199.391 56.9744 199.305 56.9357C199.219 56.8969 199.136 56.8506 199.058 56.7967C198.979 56.743 198.91 56.6831 198.849 56.617C198.789 56.5508 198.741 56.4688 198.705 56.3699C198.67 56.2714 198.652 56.1612 198.652 56.04C198.652 55.7335 198.755 55.4913 198.963 55.3139C199.171 55.1364 199.44 55.0479 199.77 55.0479C200.089 55.0479 200.397 55.1563 200.694 55.3732L200.379 55.8489C200.197 55.6881 199.984 55.6078 199.741 55.6078C199.589 55.6078 199.471 55.6403 199.388 55.7056C199.304 55.7708 199.262 55.8619 199.262 55.9788C199.262 56.0714 199.29 56.1517 199.348 56.2199C199.405 56.2885 199.48 56.3439 199.571 56.3872C199.663 56.4305 199.764 56.4727 199.876 56.5138C199.987 56.5545 200.098 56.6019 200.208 56.6558C200.318 56.7097 200.42 56.7729 200.511 56.8458C200.602 56.9186 200.677 57.0168 200.734 57.1404C200.792 57.2642 200.82 57.4086 200.82 57.5742C200.82 57.8912 200.72 58.1447 200.521 58.3345C200.321 58.5241 200.035 58.6189 199.663 58.6189C199.515 58.6189 199.379 58.6029 199.253 58.5711C199.128 58.5393 198.996 58.4763 198.858 58.3821C198.72 58.2886 198.594 58.1633 198.48 58.007Z" fill="white"/>
<path d="M201.108 55.1072H201.818L202.66 56.4547L203.509 55.1072H204.217L202.967 57.0235V58.5579H202.357V57.0283L201.108 55.1072Z" fill="white"/>
<path d="M204.442 58.007L204.824 57.6109C204.882 57.678 204.934 57.733 204.981 57.7774C205.027 57.8213 205.084 57.8674 205.152 57.915C205.22 57.9629 205.293 57.999 205.373 58.0231C205.453 58.0475 205.539 58.0596 205.63 58.0596C205.81 58.0596 205.945 58.0137 206.036 57.9218C206.127 57.83 206.173 57.7235 206.173 57.6019C206.173 57.5307 206.155 57.4661 206.119 57.4084C206.084 57.3506 206.036 57.3017 205.976 57.2614C205.917 57.2211 205.847 57.1837 205.77 57.1486C205.692 57.1138 205.61 57.0794 205.524 57.045C205.439 57.011 205.353 56.9744 205.267 56.9357C205.181 56.8969 205.098 56.8506 205.02 56.7967C204.941 56.743 204.872 56.6831 204.811 56.617C204.751 56.5508 204.703 56.4688 204.667 56.3699C204.631 56.2714 204.614 56.1612 204.614 56.04C204.614 55.7335 204.717 55.4913 204.925 55.3139C205.133 55.1364 205.402 55.0479 205.732 55.0479C206.051 55.0479 206.359 55.1563 206.656 55.3732L206.34 55.8489C206.159 55.6881 205.946 55.6078 205.703 55.6078C205.551 55.6078 205.433 55.6403 205.349 55.7056C205.265 55.7708 205.223 55.8619 205.223 55.9788C205.223 56.0714 205.252 56.1517 205.31 56.2199C205.367 56.2885 205.442 56.3439 205.533 56.3872C205.625 56.4305 205.726 56.4727 205.838 56.5138C205.949 56.5545 206.06 56.6019 206.17 56.6558C206.28 56.7097 206.381 56.7729 206.473 56.8458C206.564 56.9186 206.639 57.0168 206.696 57.1404C206.754 57.2642 206.782 57.4086 206.782 57.5742C206.782 57.8912 206.682 58.1447 206.482 58.3345C206.283 58.5241 205.997 58.6189 205.625 58.6189C205.477 58.6189 205.341 58.6029 205.215 58.5711C205.09 58.5393 204.958 58.4763 204.82 58.3821C204.681 58.2886 204.556 58.1633 204.442 58.007Z" fill="white"/>
<path d="M207.122 55.6944V55.1072H209.946V55.6944H208.842V58.5579H208.232V55.6944H207.122Z" fill="white"/>
<path d="M210.613 58.5579V55.1072H212.798V55.6946H211.223V56.4638H212.463V57.051H211.223V57.9707H212.798V58.5579H210.613Z" fill="white"/>
<path d="M213.583 58.5579V55.1072H214.371L215.322 56.6277L216.287 55.1072H217.075V58.5579H216.465V55.9426L215.611 57.2764H215.033L214.193 55.9426V58.5579H213.583Z" fill="white"/>
</svg>
